<?xml version="1.0" encoding="utf-8"?>
<!-- Generator: Adobe Illustrator 22.1.0, SVG Export Plug-In . SVG Version: 6.00 Build 0)  -->
<svg version="1.0" id="card" xmlns="http://www.w3.org/2000/svg" xmlns:xlink="http://www.w3.org/1999/xlink" x="0px" y="0px"
	 viewBox="0 0 400 100" enable-background="new 0 0 400 100" xml:space="preserve">
<g>
	<g>
		<path fill="#3C57A0" d="M126.615,83.066c0,2.18-1.769,3.947-3.949,3.947H12.121c-2.18,0-3.947-1.767-3.947-3.947V16.937
			c0-2.182,1.767-3.949,3.947-3.949h110.545c2.18,0,3.949,1.767,3.949,3.949V83.066z"/>
		<g>
			<polygon fill="#FFFFFF" points="62.679,61.12 56.893,61.12 60.51,38.896 66.296,38.896 			"/>
			<path fill="#FFFFFF" d="M52.026,38.896L46.51,54.181l-0.653-3.291v0.001l-1.946-9.994c0,0-0.236-2.001-2.744-2.001h-9.12
				l-0.105,0.377c0,0,2.789,0.579,6.051,2.54l5.026,19.307h6.029l9.207-22.223H52.026z"/>
			<path fill="#FFFFFF" d="M97.536,61.12h5.312l-4.631-22.223h-4.651c-2.149,0-2.672,1.656-2.672,1.656L82.266,61.12h6.031
				l1.204-3.3h7.357L97.536,61.12z M91.17,53.259l3.039-8.318l1.712,8.318H91.17z"/>
			<path fill="#FFFFFF" d="M82.717,44.24l0.824-4.773c0,0-2.547-0.968-5.203-0.968c-2.872,0-9.69,1.255-9.69,7.357
				c0,5.742,8.004,5.813,8.004,8.827c0,3.015-7.18,2.476-9.548,0.575l-0.861,4.988c0,0,2.584,1.256,6.531,1.256
				c3.949,0,9.906-2.045,9.906-7.608c0-5.778-8.074-6.317-8.074-8.829C74.606,42.553,80.242,42.876,82.717,44.24z"/>
		</g>
		<path fill="#F5A537" d="M45.857,50.891l-1.946-9.994c0,0-0.236-2.001-2.744-2.001h-9.12l-0.105,0.377c0,0,4.382,0.908,8.585,4.311
			C44.546,46.837,45.857,50.891,45.857,50.891z"/>
	</g>
	<g>
		<path fill="#17467D" d="M259.22,83.066c0,2.181-1.769,3.947-3.949,3.947H144.726c-2.18,0-3.947-1.766-3.947-3.947V16.937
			c0-2.181,1.767-3.949,3.947-3.949h110.545c2.18,0,3.949,1.768,3.949,3.949V83.066z"/>
		<g>
			<polygon fill-rule="evenodd" clip-rule="evenodd" fill="#F8B235" points="214.212,71.249 215.309,71.221 216.392,71.142 
				217.453,71.007 218.507,70.82 219.533,70.583 220.544,70.297 221.532,69.96 222.499,69.58 223.445,69.15 224.363,68.684 
				225.252,68.167 226.119,67.616 226.951,67.022 227.753,66.39 228.528,65.724 229.265,65.015 229.975,64.276 230.641,63.501 
				231.274,62.699 231.868,61.867 232.419,61.001 232.935,60.11 233.4,59.193 233.83,58.248 234.21,57.279 234.547,56.29 
				234.835,55.28 235.071,54.255 235.257,53.202 235.394,52.141 235.473,51.058 235.501,49.962 235.473,48.872 235.394,47.797 
				235.257,46.736 235.071,45.696 234.835,44.672 234.547,43.668 234.21,42.679 233.83,41.718 233.4,40.78 232.935,39.862 
				232.419,38.981 231.868,38.114 231.274,37.282 230.641,36.486 229.975,35.713 229.265,34.974 228.528,34.271 227.753,33.605 
				226.951,32.974 226.119,32.379 225.252,31.827 224.363,31.318 223.445,30.853 222.499,30.422 221.532,30.042 220.544,29.706 
				219.533,29.419 218.507,29.182 217.453,28.996 216.392,28.86 215.309,28.78 214.212,28.752 213.124,28.78 212.041,28.86 
				210.981,28.996 209.933,29.182 208.908,29.419 207.897,29.706 206.916,30.042 205.948,30.422 205.009,30.853 204.1,31.318 
				203.211,31.827 202.35,32.379 201.52,32.974 200.716,33.605 199.948,34.271 199.211,34.974 198.508,35.713 197.842,36.486 
				197.211,37.282 196.623,38.114 196.07,38.981 195.563,39.862 195.089,40.78 194.666,41.718 194.286,42.679 193.956,43.668 
				193.67,44.672 193.432,45.696 193.246,46.736 193.112,47.797 193.032,48.872 193.003,49.962 193.032,51.058 193.112,52.141 
				193.246,53.202 193.432,54.255 193.67,55.28 193.956,56.29 194.286,57.279 194.666,58.248 195.089,59.193 195.563,60.11 
				196.07,61.001 196.623,61.867 197.211,62.699 197.842,63.501 198.508,64.276 199.211,65.015 199.948,65.724 200.716,66.39 
				201.52,67.022 202.35,67.616 203.211,68.167 204.1,68.684 205.009,69.15 205.948,69.58 206.916,69.96 207.897,70.297 
				208.908,70.583 209.933,70.82 210.981,71.007 212.041,71.142 213.124,71.221 214.212,71.249 214.212,71.249 			"/>
			<polygon fill-rule="evenodd" clip-rule="evenodd" fill="#E42431" points="185.786,71.249 186.874,71.221 187.957,71.142 
				189.019,71.007 190.065,70.82 191.09,70.583 192.099,70.297 193.082,69.96 194.05,69.58 194.989,69.15 195.9,68.684 
				196.787,68.167 197.649,67.616 198.48,67.022 199.283,66.39 200.05,65.724 200.787,65.015 201.49,64.276 202.158,63.501 
				202.787,62.699 203.375,61.867 203.926,61.001 204.436,60.11 204.909,59.193 205.332,58.248 205.712,57.279 206.042,56.29 
				206.328,55.28 206.566,54.255 206.75,53.202 206.888,52.141 206.966,51.058 206.994,49.962 206.966,48.872 206.888,47.797 
				206.75,46.736 206.566,45.696 206.328,44.672 206.042,43.668 205.712,42.679 205.332,41.718 204.909,40.78 204.436,39.862 
				203.926,38.981 203.375,38.114 202.787,37.282 202.158,36.486 201.49,35.713 200.787,34.974 200.05,34.271 199.283,33.605 
				198.48,32.974 197.649,32.379 196.787,31.827 195.9,31.318 194.989,30.853 194.05,30.422 193.082,30.042 192.099,29.706 
				191.09,29.419 190.065,29.182 189.019,28.996 187.957,28.86 186.874,28.78 185.786,28.752 184.689,28.78 183.606,28.86 
				182.546,28.996 181.491,29.182 180.467,29.419 179.456,29.706 178.466,30.042 177.5,30.422 176.553,30.853 175.637,31.318 
				174.748,31.827 173.879,32.379 173.047,32.974 172.245,33.605 171.471,34.271 170.733,34.974 170.023,35.713 169.357,36.486 
				168.726,37.282 168.13,38.114 167.579,38.981 167.063,39.862 166.598,40.78 166.166,41.718 165.788,42.679 165.451,43.668 
				165.163,44.672 164.927,45.696 164.741,46.736 164.604,47.797 164.525,48.872 164.497,49.962 164.525,51.058 164.604,52.141 
				164.741,53.202 164.927,54.255 165.163,55.28 165.451,56.29 165.788,57.279 166.166,58.248 166.598,59.193 167.063,60.11 
				167.579,61.001 168.13,61.867 168.726,62.699 169.357,63.501 170.023,64.276 170.733,65.015 171.471,65.724 172.245,66.39 
				173.047,67.022 173.879,67.616 174.748,68.167 175.637,68.684 176.553,69.15 177.5,69.58 178.466,69.96 179.456,70.297 
				180.467,70.583 181.491,70.82 182.546,71.007 183.606,71.142 184.689,71.221 185.786,71.249 185.786,71.249 			"/>
			<polygon fill-rule="evenodd" clip-rule="evenodd" fill="#F8B235" points="197.512,36.902 208.803,36.902 208.803,35.747 
				198.486,35.747 197.512,36.902 197.512,36.902 			"/>
			<polygon fill-rule="evenodd" clip-rule="evenodd" fill="#F8B235" points="195.821,39.467 208.803,39.467 208.803,38.313 
				196.501,38.313 195.821,39.467 195.821,39.467 			"/>
			<polygon fill-rule="evenodd" clip-rule="evenodd" fill="#F8B235" points="194.558,42.027 208.803,42.027 208.803,40.872 
				195.061,40.872 194.558,42.027 194.558,42.027 			"/>
			<polygon fill-rule="evenodd" clip-rule="evenodd" fill="#F8B235" points="193.691,44.593 208.803,44.593 208.803,43.439 
				194.05,43.439 193.691,44.593 193.691,44.593 			"/>
			<polygon fill-rule="evenodd" clip-rule="evenodd" fill="#F8B235" points="194.194,56.993 208.838,56.993 208.838,55.839 
				193.834,55.839 194.194,56.993 194.194,56.993 			"/>
			<polygon fill-rule="evenodd" clip-rule="evenodd" fill="#F8B235" points="195.275,59.559 208.838,59.559 208.838,58.405 
				194.738,58.405 195.275,59.559 195.275,59.559 			"/>
			<polygon fill-rule="evenodd" clip-rule="evenodd" fill="#F8B235" points="196.795,62.118 208.838,62.118 208.838,60.964 
				196.07,60.964 196.795,62.118 196.795,62.118 			"/>
			<polygon fill-rule="evenodd" clip-rule="evenodd" fill="#F8B235" points="198.888,64.684 208.838,64.684 208.838,63.523 
				197.877,63.523 198.888,64.684 198.888,64.684 			"/>
			<polygon fill-rule="evenodd" clip-rule="evenodd" fill="#F8B235" points="193.183,47.152 208.803,47.152 208.803,45.998 
				193.405,45.998 193.183,47.152 193.183,47.152 			"/>
			<polygon fill-rule="evenodd" clip-rule="evenodd" fill="#F8B235" points="202.702,54.435 208.657,54.435 208.657,53.28 
				202.916,53.28 202.702,54.435 202.702,54.435 			"/>
			<polygon fill-rule="evenodd" clip-rule="evenodd" fill="#F8B235" points="203.174,51.875 208.657,51.875 208.657,50.714 
				203.39,50.714 203.174,51.875 203.174,51.875 			"/>
			<polygon fill-rule="evenodd" clip-rule="evenodd" fill="#F8B235" points="192.789,50.714 194.336,50.714 194.336,51.875 
				192.861,51.875 192.789,50.714 192.789,50.714 			"/>
			<polygon fill-rule="evenodd" clip-rule="evenodd" fill="#FFFFFF" points="189.899,49.316 189.799,49.309 189.698,49.295 
				189.606,49.281 189.513,49.266 189.427,49.252 189.334,49.238 189.24,49.224 189.139,49.209 189.039,49.195 188.925,49.187 
				188.796,49.18 188.661,49.173 188.51,49.173 188.344,49.18 188.158,49.195 187.951,49.209 187.807,49.231 187.671,49.252 
				187.549,49.295 187.44,49.337 187.341,49.388 187.248,49.445 187.177,49.518 187.112,49.582 187.068,49.66 187.031,49.739 
				187.018,49.825 187.018,49.911 187.04,50.005 187.068,50.097 187.125,50.191 187.197,50.284 187.341,50.42 187.514,50.528 
				187.713,50.62 187.929,50.699 188.158,50.772 188.396,50.85 188.632,50.937 188.86,51.029 189.076,51.151 189.275,51.301 
				189.456,51.482 189.606,51.703 189.72,51.975 189.792,52.298 189.821,52.686 189.792,53.137 189.742,53.474 189.655,53.768 
				189.541,54.04 189.397,54.276 189.233,54.485 189.047,54.664 188.846,54.821 188.624,54.958 188.396,55.065 188.158,55.158 
				187.914,55.23 187.664,55.287 187.42,55.331 187.182,55.352 186.946,55.367 186.725,55.373 186.417,55.373 186.129,55.367 
				185.878,55.367 185.642,55.36 185.426,55.352 185.233,55.337 185.061,55.323 184.897,55.302 184.746,55.287 184.609,55.259 
				184.475,55.236 184.351,55.202 184.229,55.173 184.115,55.129 184.001,55.087 183.879,55.043 184.202,53.46 184.266,53.474 
				184.346,53.496 184.445,53.523 184.567,53.553 184.696,53.581 184.838,53.61 184.997,53.645 185.168,53.675 185.347,53.703 
				185.533,53.732 185.729,53.753 185.928,53.775 186.136,53.782 186.345,53.789 186.553,53.789 186.76,53.782 186.968,53.739 
				187.134,53.681 187.263,53.603 187.363,53.503 187.433,53.402 187.49,53.286 187.527,53.173 187.557,53.065 187.569,52.857 
				187.505,52.678 187.383,52.534 187.204,52.413 186.99,52.306 186.738,52.198 186.459,52.097 186.179,51.983 185.893,51.854 
				185.62,51.703 185.369,51.517 185.14,51.295 184.96,51.022 184.832,50.699 184.768,50.313 184.775,49.855 184.81,49.575 
				184.86,49.309 184.932,49.066 185.019,48.837 185.133,48.622 185.262,48.435 185.413,48.255 185.592,48.099 185.801,47.962 
				186.029,47.847 186.288,47.74 186.575,47.661 186.896,47.596 187.248,47.546 187.634,47.517 188.058,47.51 188.322,47.51 
				188.565,47.517 188.789,47.525 188.99,47.532 189.168,47.546 189.334,47.56 189.476,47.574 189.606,47.589 189.727,47.603 
				189.827,47.625 189.923,47.64 190.008,47.653 190.078,47.667 190.144,47.676 190.209,47.69 190.264,47.697 189.899,49.316 
				189.899,49.316 			"/>
			<polyline fill="none" stroke="#FFFFFF" stroke-width="0.204" stroke-miterlimit="2.6131" points="189.899,49.316 189.899,49.316 
				189.799,49.309 189.698,49.295 189.606,49.281 189.513,49.266 189.427,49.252 189.334,49.238 189.24,49.224 189.139,49.209 
				189.039,49.195 188.925,49.187 188.796,49.18 188.661,49.173 188.51,49.173 188.344,49.18 188.158,49.195 187.951,49.209 
				187.951,49.209 187.807,49.231 187.671,49.252 187.549,49.295 187.44,49.337 187.341,49.388 187.248,49.445 187.177,49.518 
				187.112,49.582 187.068,49.66 187.031,49.739 187.018,49.825 187.018,49.911 187.04,50.005 187.068,50.097 187.125,50.191 
				187.197,50.284 187.197,50.284 187.341,50.42 187.514,50.528 187.713,50.62 187.929,50.699 188.158,50.772 188.396,50.85 
				188.632,50.937 188.86,51.029 189.076,51.151 189.275,51.301 189.456,51.482 189.606,51.703 189.72,51.975 189.792,52.298 
				189.821,52.686 189.792,53.137 189.792,53.137 189.742,53.474 189.655,53.768 189.541,54.04 189.397,54.276 189.233,54.485 
				189.047,54.664 188.846,54.821 188.624,54.958 188.396,55.065 188.158,55.158 187.914,55.23 187.664,55.287 187.42,55.331 
				187.182,55.352 186.946,55.367 186.725,55.373 186.725,55.373 186.417,55.373 186.129,55.367 185.878,55.367 185.642,55.36 
				185.426,55.352 185.233,55.337 185.061,55.323 184.897,55.302 184.746,55.287 184.609,55.259 184.475,55.236 184.351,55.202 
				184.229,55.173 184.115,55.129 184.001,55.087 183.879,55.043 184.202,53.46 184.202,53.46 184.266,53.474 184.346,53.496 
				184.445,53.523 184.567,53.553 184.696,53.581 184.838,53.61 184.997,53.645 185.168,53.675 185.347,53.703 185.533,53.732 
				185.729,53.753 185.928,53.775 186.136,53.782 186.345,53.789 186.553,53.789 186.76,53.782 186.76,53.782 186.968,53.739 
				187.134,53.681 187.263,53.603 187.363,53.503 187.433,53.402 187.49,53.286 187.527,53.173 187.557,53.065 187.557,53.065 
				187.569,52.857 187.505,52.678 187.383,52.534 187.204,52.413 186.99,52.306 186.738,52.198 186.459,52.097 186.179,51.983 
				185.893,51.854 185.62,51.703 185.369,51.517 185.14,51.295 184.96,51.022 184.832,50.699 184.768,50.313 184.775,49.855 
				184.775,49.855 184.81,49.575 184.86,49.309 184.932,49.066 185.019,48.837 185.133,48.622 185.262,48.435 185.413,48.255 
				185.592,48.099 185.801,47.962 186.029,47.847 186.288,47.74 186.575,47.661 186.896,47.596 187.248,47.546 187.634,47.517 
				188.058,47.51 188.058,47.51 188.322,47.51 188.565,47.517 188.789,47.525 188.99,47.532 189.168,47.546 189.334,47.56 
				189.476,47.574 189.606,47.589 189.727,47.603 189.827,47.625 189.923,47.64 190.008,47.653 190.078,47.667 190.144,47.676 
				190.209,47.69 190.264,47.697 189.899,49.316 			"/>
			<polygon fill-rule="evenodd" clip-rule="evenodd" fill="#FFFFFF" points="191.599,45.927 193.584,45.927 193.29,47.661 
				194.487,47.661 194.229,49.281 192.968,49.245 192.28,53.244 192.272,53.388 192.307,53.51 192.379,53.603 192.473,53.681 
				192.602,53.732 192.746,53.775 192.903,53.803 193.075,53.818 193.233,53.811 193.377,53.797 193.504,53.775 193.621,53.746 
				193.713,53.717 193.777,53.696 193.82,53.681 193.834,53.675 193.584,55.008 193.534,55.043 193.484,55.072 193.432,55.101 
				193.383,55.129 193.333,55.15 193.276,55.173 193.211,55.194 193.147,55.215 193.075,55.236 193.003,55.251 192.918,55.266 
				192.831,55.28 192.737,55.295 192.63,55.309 192.516,55.323 192.394,55.337 191.85,55.337 191.562,55.315 191.312,55.287 
				191.083,55.244 190.889,55.194 190.723,55.129 190.589,55.059 190.467,54.972 190.373,54.878 190.301,54.778 190.251,54.657 
				190.214,54.534 190.194,54.398 190.186,54.248 190.186,54.09 190.209,53.926 190.229,53.746 191.599,45.927 191.599,45.927 			
				"/>
			<polyline fill="none" stroke="#FFFFFF" stroke-width="0.204" stroke-miterlimit="2.6131" points="191.599,45.927 193.584,45.927 
				193.29,47.661 194.487,47.661 194.229,49.281 192.968,49.245 192.28,53.244 192.28,53.244 192.272,53.388 192.307,53.51 
				192.379,53.603 192.473,53.681 192.602,53.732 192.746,53.775 192.903,53.803 193.075,53.818 193.075,53.818 193.233,53.811 
				193.377,53.797 193.504,53.775 193.621,53.746 193.713,53.717 193.777,53.696 193.82,53.681 193.834,53.675 193.584,55.008 
				193.584,55.008 193.534,55.043 193.484,55.072 193.432,55.101 193.383,55.129 193.333,55.15 193.276,55.173 193.211,55.194 
				193.147,55.215 193.075,55.236 193.003,55.251 192.918,55.266 192.831,55.28 192.737,55.295 192.63,55.309 192.516,55.323 
				192.394,55.337 191.85,55.337 191.85,55.337 191.562,55.315 191.312,55.287 191.083,55.244 190.889,55.194 190.723,55.129 
				190.589,55.059 190.467,54.972 190.373,54.878 190.301,54.778 190.251,54.657 190.214,54.534 190.194,54.398 190.186,54.248 
				190.186,54.09 190.209,53.926 190.229,53.746 191.599,45.927 			"/>
			<polyline fill="none" stroke="#FFFFFF" stroke-width="0.204" stroke-miterlimit="2.6131" points="196.07,51.983 196.07,51.983 
				196.051,52.104 196.044,52.233 196.055,52.369 196.085,52.506 196.136,52.642 196.193,52.773 196.271,52.908 196.357,53.029 
				196.459,53.152 196.566,53.26 196.68,53.367 196.809,53.452 196.937,53.532 197.082,53.595 197.224,53.645 197.368,53.675 
				197.368,53.675 197.556,53.703 197.733,53.725 197.92,53.746 198.108,53.761 198.292,53.768 198.486,53.768 198.674,53.761 
				198.866,53.746 199.059,53.717 199.255,53.681 199.454,53.639 199.648,53.574 199.849,53.496 200.057,53.409 200.256,53.295 
				200.467,53.173 200.179,54.936 200.179,54.936 200.065,54.993 199.948,55.051 199.834,55.093 199.727,55.138 199.62,55.173 
				199.504,55.209 199.389,55.236 199.268,55.259 199.139,55.28 198.995,55.295 198.845,55.309 198.679,55.323 198.493,55.331 
				198.299,55.331 198.078,55.337 197.842,55.337 197.842,55.337 197.49,55.331 197.132,55.295 196.774,55.244 196.415,55.158 
				196.064,55.051 195.727,54.914 195.404,54.735 195.103,54.527 194.823,54.284 194.58,53.99 194.373,53.66 194.2,53.28 
				194.078,52.857 193.999,52.376 193.978,51.846 194.013,51.259 194.013,51.259 194.043,51.029 194.085,50.764 194.143,50.485 
				194.222,50.183 194.331,49.876 194.458,49.567 194.624,49.252 194.823,48.951 195.054,48.664 195.332,48.392 195.647,48.149 
				196.007,47.934 196.422,47.754 196.889,47.625 197.405,47.539 197.986,47.51 197.986,47.51 198.264,47.517 198.56,47.546 
				198.851,47.596 199.146,47.667 199.434,47.776 199.712,47.905 199.971,48.077 200.207,48.277 200.422,48.521 200.601,48.808 
				200.745,49.138 200.845,49.518 200.902,49.946 200.909,50.434 200.859,50.979 200.752,51.582 200.716,52.019 195.491,52.019 
				195.821,50.606 198.96,50.606 198.96,50.606 198.975,50.428 198.967,50.256 198.952,50.097 198.925,49.955 198.873,49.819 
				198.823,49.695 198.751,49.589 198.679,49.488 198.595,49.403 198.501,49.331 198.394,49.266 198.285,49.209 198.172,49.167 
				198.056,49.138 197.934,49.116 197.807,49.101 197.807,49.101 197.669,49.109 197.542,49.13 197.42,49.16 197.298,49.202 
				197.174,49.259 197.068,49.324 196.959,49.403 196.868,49.488 196.774,49.589 196.688,49.695 196.61,49.811 196.544,49.934 
				196.479,50.062 196.429,50.205 196.387,50.349 196.357,50.499 196.07,51.983 			"/>
			<polygon fill-rule="evenodd" clip-rule="evenodd" fill="#FFFFFF" points="213.166,48.091 213.072,48.041 212.98,47.997 
				212.881,47.947 212.772,47.897 212.665,47.854 212.543,47.811 212.421,47.768 212.292,47.725 212.156,47.69 212.019,47.661 
				211.868,47.632 211.719,47.61 211.555,47.596 211.389,47.582 211.217,47.582 211.038,47.582 210.859,47.582 210.671,47.596 
				210.479,47.618 210.276,47.653 210.077,47.711 209.876,47.79 209.677,47.89 209.474,48.019 209.281,48.177 209.094,48.363 
				208.915,48.593 208.744,48.858 208.585,49.173 208.436,49.531 208.301,49.934 208.185,50.392 208.143,50.649 208.113,50.9 
				208.098,51.151 208.106,51.395 208.128,51.639 208.178,51.868 208.242,52.083 208.321,52.298 208.428,52.492 208.558,52.678 
				208.709,52.843 208.88,52.994 209.074,53.123 209.295,53.23 209.539,53.323 209.813,53.388 209.906,53.409 210.013,53.43 
				210.142,53.445 210.286,53.46 210.442,53.474 210.607,53.474 210.787,53.474 210.966,53.46 211.152,53.437 211.339,53.402 
				211.518,53.352 211.696,53.295 211.875,53.215 212.041,53.123 212.191,53.008 212.335,52.879 212.012,54.793 211.969,54.829 
				211.925,54.872 211.868,54.923 211.803,54.964 211.726,55.021 211.625,55.072 211.51,55.122 211.381,55.165 211.217,55.215 
				211.031,55.251 210.815,55.28 210.564,55.309 210.286,55.323 209.963,55.331 209.598,55.323 209.194,55.302 208.866,55.266 
				208.535,55.194 208.205,55.087 207.877,54.943 207.562,54.772 207.261,54.555 206.973,54.305 206.708,54.019 206.472,53.696 
				206.271,53.338 206.099,52.937 205.97,52.499 205.885,52.019 205.856,51.51 205.87,50.951 205.948,50.356 206.007,50.062 
				206.071,49.776 206.141,49.496 206.213,49.231 206.293,48.979 206.385,48.729 206.479,48.493 206.579,48.27 206.687,48.048 
				206.794,47.84 206.916,47.64 207.045,47.453 207.174,47.273 207.316,47.102 207.46,46.944 207.611,46.794 207.776,46.65 
				207.942,46.514 208.113,46.392 208.294,46.277 208.486,46.17 208.679,46.077 208.88,45.991 209.089,45.911 209.31,45.84 
				209.531,45.783 209.762,45.732 210.005,45.69 210.249,45.653 210.507,45.625 210.765,45.612 211.038,45.603 211.267,45.612 
				211.49,45.625 211.704,45.647 211.92,45.676 212.121,45.703 212.314,45.747 212.499,45.783 212.672,45.826 212.836,45.869 
				212.98,45.911 213.117,45.955 213.231,45.998 213.331,46.033 213.417,46.063 213.482,46.091 213.526,46.106 213.166,48.091 
				213.166,48.091 			"/>
			<polyline fill="none" stroke="#FFFFFF" stroke-width="0.204" stroke-miterlimit="2.6131" points="213.166,48.091 213.166,48.091 
				213.072,48.041 212.98,47.997 212.881,47.947 212.772,47.897 212.665,47.854 212.543,47.811 212.421,47.768 212.292,47.725 
				212.156,47.69 212.019,47.661 211.868,47.632 211.719,47.61 211.555,47.596 211.389,47.582 211.217,47.582 211.038,47.582 
				211.038,47.582 210.859,47.582 210.671,47.596 210.479,47.618 210.276,47.653 210.077,47.711 209.876,47.79 209.677,47.89 
				209.474,48.019 209.281,48.177 209.094,48.363 208.915,48.593 208.744,48.858 208.585,49.173 208.436,49.531 208.301,49.934 
				208.185,50.392 208.185,50.392 208.143,50.649 208.113,50.9 208.098,51.151 208.106,51.395 208.128,51.639 208.178,51.868 
				208.242,52.083 208.321,52.298 208.428,52.492 208.558,52.678 208.709,52.843 208.88,52.994 209.074,53.123 209.295,53.23 
				209.539,53.323 209.813,53.388 209.813,53.388 209.906,53.409 210.013,53.43 210.142,53.445 210.286,53.46 210.442,53.474 
				210.607,53.474 210.787,53.474 210.966,53.46 211.152,53.437 211.339,53.402 211.518,53.352 211.696,53.295 211.875,53.215 
				212.041,53.123 212.191,53.008 212.335,52.879 212.012,54.793 212.012,54.793 211.969,54.829 211.925,54.872 211.868,54.923 
				211.803,54.964 211.726,55.021 211.625,55.072 211.51,55.122 211.381,55.165 211.217,55.215 211.031,55.251 210.815,55.28 
				210.564,55.309 210.286,55.323 209.963,55.331 209.598,55.323 209.194,55.302 209.194,55.302 208.866,55.266 208.535,55.194 
				208.205,55.087 207.877,54.943 207.562,54.772 207.261,54.555 206.973,54.305 206.708,54.019 206.472,53.696 206.271,53.338 
				206.099,52.937 205.97,52.499 205.885,52.019 205.856,51.51 205.87,50.951 205.948,50.356 205.948,50.356 206.007,50.062 
				206.071,49.776 206.141,49.496 206.213,49.231 206.293,48.979 206.385,48.729 206.479,48.493 206.579,48.27 206.687,48.048 
				206.794,47.84 206.916,47.64 207.045,47.453 207.174,47.273 207.316,47.102 207.46,46.944 207.611,46.794 207.776,46.65 
				207.942,46.514 208.113,46.392 208.294,46.277 208.486,46.17 208.679,46.077 208.88,45.991 209.089,45.911 209.31,45.84 
				209.531,45.783 209.762,45.732 210.005,45.69 210.249,45.653 210.507,45.625 210.765,45.612 211.038,45.603 211.038,45.603 
				211.267,45.612 211.49,45.625 211.704,45.647 211.92,45.676 212.121,45.703 212.314,45.747 212.499,45.783 212.672,45.826 
				212.836,45.869 212.98,45.911 213.117,45.955 213.231,45.998 213.331,46.033 213.417,46.063 213.482,46.091 213.526,46.106 
				213.166,48.091 			"/>
			<polygon fill-rule="evenodd" clip-rule="evenodd" fill="#FFFFFF" points="230.813,55.337 228.828,55.337 228.972,54.542 
				228.972,54.47 228.856,54.614 228.736,54.742 228.614,54.857 228.485,54.958 228.354,55.051 228.225,55.129 228.096,55.194 
				227.96,55.259 227.825,55.309 227.688,55.345 227.552,55.38 227.408,55.401 227.264,55.423 227.128,55.438 226.986,55.445 
				226.842,55.445 226.469,55.416 226.126,55.337 225.811,55.215 225.523,55.051 225.265,54.842 225.036,54.6 224.835,54.333 
				224.664,54.033 224.52,53.71 224.406,53.374 224.326,53.023 224.269,52.656 224.249,52.291 224.254,51.919 224.291,51.553 
				224.356,51.188 224.463,50.764 224.594,50.363 224.741,49.997 224.922,49.653 225.108,49.331 225.322,49.043 225.545,48.787 
				225.781,48.55 226.032,48.341 226.298,48.162 226.571,48.005 226.842,47.883 227.128,47.782 227.415,47.718 227.703,47.676 
				227.996,47.661 228.205,47.667 228.404,47.69 228.592,47.725 228.765,47.776 228.928,47.834 229.072,47.897 229.216,47.977 
				229.345,48.055 229.459,48.14 229.566,48.234 229.658,48.327 229.745,48.421 229.817,48.514 229.883,48.607 229.938,48.694 
				229.983,48.779 229.983,48.779 230.484,45.962 232.434,45.962 230.813,55.337 230.813,55.337 			"/>
			<polyline fill="none" stroke="#FFFFFF" stroke-width="0.204" stroke-miterlimit="2.6131" points="230.813,55.337 228.828,55.337 
				228.972,54.542 228.972,54.47 228.972,54.47 228.856,54.614 228.736,54.742 228.614,54.857 228.485,54.958 228.354,55.051 
				228.225,55.129 228.096,55.194 227.96,55.259 227.825,55.309 227.688,55.345 227.552,55.38 227.408,55.401 227.264,55.423 
				227.128,55.438 226.986,55.445 226.842,55.445 226.842,55.445 226.469,55.416 226.126,55.337 225.811,55.215 225.523,55.051 
				225.265,54.842 225.036,54.6 224.835,54.333 224.664,54.033 224.52,53.71 224.406,53.374 224.326,53.023 224.269,52.656 
				224.249,52.291 224.254,51.919 224.291,51.553 224.356,51.188 224.356,51.188 224.463,50.764 224.594,50.363 224.741,49.997 
				224.922,49.653 225.108,49.331 225.322,49.043 225.545,48.787 225.781,48.55 226.032,48.341 226.298,48.162 226.571,48.005 
				226.842,47.883 227.128,47.782 227.415,47.718 227.703,47.676 227.996,47.661 227.996,47.661 228.205,47.667 228.404,47.69 
				228.592,47.725 228.765,47.776 228.928,47.834 229.072,47.897 229.216,47.977 229.345,48.055 229.459,48.14 229.566,48.234 
				229.658,48.327 229.745,48.421 229.817,48.514 229.883,48.607 229.938,48.694 229.983,48.779 229.983,48.779 230.484,45.962 
				232.434,45.962 230.813,55.337 			"/>
			<polygon fill-rule="evenodd" clip-rule="evenodd" fill="#F8B235" points="227.567,53.603 227.768,53.589 227.954,53.546 
				228.126,53.496 228.292,53.417 228.441,53.331 228.585,53.223 228.719,53.102 228.843,52.971 228.95,52.828 229.05,52.67 
				229.144,52.506 229.223,52.335 229.293,52.154 229.352,51.969 229.402,51.775 229.437,51.582 229.472,51.382 229.496,51.174 
				229.496,50.979 229.487,50.779 229.466,50.593 229.437,50.413 229.387,50.241 229.33,50.076 229.258,49.934 229.173,49.797 
				229.079,49.681 228.972,49.582 228.85,49.496 228.719,49.438 228.585,49.403 228.434,49.388 228.24,49.403 228.061,49.431 
				227.897,49.488 227.731,49.56 227.587,49.653 227.445,49.768 227.323,49.89 227.202,50.026 227.093,50.183 226.993,50.349 
				226.899,50.52 226.82,50.707 226.75,50.9 226.693,51.095 226.635,51.301 226.591,51.51 226.554,51.826 226.571,52.17 
				226.621,52.52 226.713,52.857 226.857,53.152 227.043,53.388 227.279,53.546 227.567,53.603 227.567,53.603 			"/>
			<polygon fill-rule="evenodd" clip-rule="evenodd" fill="#FFFFFF" points="183.549,53.746 183.261,55.337 181.456,55.337 
				181.505,55.043 181.542,54.778 181.57,54.578 181.599,54.47 181.5,54.585 181.384,54.7 181.249,54.807 181.098,54.907 
				180.926,55.008 180.746,55.093 180.559,55.18 180.367,55.251 180.159,55.315 179.951,55.367 179.744,55.41 179.528,55.438 
				179.32,55.452 179.113,55.459 178.912,55.438 178.717,55.41 178.466,55.345 178.237,55.273 178.036,55.18 177.857,55.072 
				177.701,54.958 177.557,54.829 177.442,54.692 177.341,54.549 177.256,54.398 177.184,54.24 177.127,54.083 177.085,53.926 
				177.055,53.761 177.033,53.595 177.018,53.437 177.018,53.28 177.04,53 177.085,52.735 177.155,52.485 177.249,52.241 
				177.363,52.011 177.492,51.804 177.643,51.604 177.815,51.424 177.994,51.259 178.195,51.108 178.401,50.972 178.617,50.857 
				178.846,50.758 179.084,50.678 179.327,50.614 179.578,50.571 179.593,50.571 179.628,50.563 179.678,50.556 179.757,50.549 
				179.844,50.535 179.943,50.528 180.05,50.513 180.174,50.499 180.295,50.485 180.417,50.471 180.546,50.463 180.661,50.449 
				180.775,50.442 180.882,50.434 180.982,50.428 181.061,50.428 181.227,50.428 181.4,50.434 181.557,50.442 181.714,50.442 
				181.843,50.449 181.944,50.456 182.014,50.463 182.037,50.463 182.051,50.413 182.094,50.284 182.131,50.133 182.144,49.997 
				182.116,49.84 182.051,49.695 181.965,49.567 181.85,49.459 181.714,49.368 181.564,49.302 181.391,49.259 181.205,49.245 
				181.004,49.238 180.788,49.231 180.567,49.231 180.338,49.238 180.102,49.252 179.871,49.273 179.643,49.295 179.419,49.324 
				179.205,49.352 178.997,49.388 178.811,49.423 178.639,49.459 178.481,49.504 178.353,49.546 178.252,49.596 178.173,49.639 
				178.682,47.912 178.84,47.847 178.997,47.79 179.17,47.74 179.342,47.703 179.514,47.667 179.7,47.64 179.886,47.61 
				180.08,47.596 180.281,47.582 180.487,47.574 180.703,47.567 180.926,47.567 181.155,47.567 181.391,47.567 181.642,47.574 
				181.893,47.582 182.094,47.596 182.31,47.632 182.533,47.682 182.759,47.747 182.981,47.834 183.198,47.934 183.412,48.055 
				183.613,48.191 183.792,48.35 183.951,48.521 184.095,48.714 184.202,48.929 184.274,49.16 184.316,49.403 184.316,49.675 
				184.274,49.962 183.549,53.746 183.549,53.746 			"/>
			<polyline fill="none" stroke="#FFFFFF" stroke-width="0.204" stroke-miterlimit="2.6131" points="183.549,53.746 183.261,55.337 
				181.456,55.337 181.456,55.337 181.505,55.043 181.542,54.778 181.57,54.578 181.599,54.47 181.599,54.47 181.5,54.585 
				181.384,54.7 181.249,54.807 181.098,54.907 180.926,55.008 180.746,55.093 180.559,55.18 180.367,55.251 180.159,55.315 
				179.951,55.367 179.744,55.41 179.528,55.438 179.32,55.452 179.113,55.459 178.912,55.438 178.717,55.41 178.717,55.41 
				178.466,55.345 178.237,55.273 178.036,55.18 177.857,55.072 177.701,54.958 177.557,54.829 177.442,54.692 177.341,54.549 
				177.256,54.398 177.184,54.24 177.127,54.083 177.085,53.926 177.055,53.761 177.033,53.595 177.018,53.437 177.018,53.28 
				177.018,53.28 177.04,53 177.085,52.735 177.155,52.485 177.249,52.241 177.363,52.011 177.492,51.804 177.643,51.604 
				177.815,51.424 177.994,51.259 178.195,51.108 178.401,50.972 178.617,50.857 178.846,50.758 179.084,50.678 179.327,50.614 
				179.578,50.571 179.578,50.571 179.593,50.571 179.628,50.563 179.678,50.556 179.757,50.549 179.844,50.535 179.943,50.528 
				180.05,50.513 180.174,50.499 180.295,50.485 180.417,50.471 180.546,50.463 180.661,50.449 180.775,50.442 180.882,50.434 
				180.982,50.428 181.061,50.428 181.061,50.428 181.227,50.428 181.4,50.434 181.557,50.442 181.714,50.442 181.843,50.449 
				181.944,50.456 182.014,50.463 182.037,50.463 182.037,50.463 182.051,50.413 182.094,50.284 182.131,50.133 182.144,49.997 
				182.144,49.997 182.116,49.84 182.051,49.695 181.965,49.567 181.85,49.459 181.714,49.368 181.564,49.302 181.391,49.259 
				181.205,49.245 181.205,49.245 181.004,49.238 180.788,49.231 180.567,49.231 180.338,49.238 180.102,49.252 179.871,49.273 
				179.643,49.295 179.419,49.324 179.205,49.352 178.997,49.388 178.811,49.423 178.639,49.459 178.481,49.504 178.353,49.546 
				178.252,49.596 178.173,49.639 178.682,47.912 178.682,47.912 178.84,47.847 178.997,47.79 179.17,47.74 179.342,47.703 
				179.514,47.667 179.7,47.64 179.886,47.61 180.08,47.596 180.281,47.582 180.487,47.574 180.703,47.567 180.926,47.567 
				181.155,47.567 181.391,47.567 181.642,47.574 181.893,47.582 181.893,47.582 182.094,47.596 182.31,47.632 182.533,47.682 
				182.759,47.747 182.981,47.834 183.198,47.934 183.412,48.055 183.613,48.191 183.792,48.35 183.951,48.521 184.095,48.714 
				184.202,48.929 184.274,49.16 184.316,49.403 184.316,49.675 184.274,49.962 183.549,53.746 			"/>
			<polygon fill-rule="evenodd" clip-rule="evenodd" fill="#E42431" points="181.823,51.875 181.815,51.839 181.786,51.804 
				181.743,51.782 181.671,51.768 181.592,51.754 181.5,51.746 181.391,51.746 181.284,51.746 181.168,51.754 181.046,51.768 
				180.932,51.782 180.817,51.797 180.71,51.811 180.609,51.832 180.524,51.854 180.445,51.875 180.395,51.889 180.338,51.912 
				180.259,51.94 180.179,51.975 180.087,52.019 179.993,52.07 179.893,52.119 179.799,52.177 179.7,52.248 179.608,52.319 
				179.521,52.406 179.442,52.492 179.37,52.585 179.32,52.686 179.276,52.8 179.255,52.915 179.248,53.159 179.285,53.352 
				179.355,53.496 179.449,53.603 179.556,53.675 179.678,53.717 179.792,53.739 179.908,53.746 180.124,53.739 180.318,53.717 
				180.504,53.688 180.666,53.645 180.812,53.595 180.947,53.532 181.068,53.467 181.177,53.388 181.271,53.316 181.356,53.23 
				181.428,53.152 181.485,53.065 181.535,52.979 181.577,52.894 181.614,52.814 181.634,52.735 181.693,52.528 181.743,52.291 
				181.786,52.062 181.823,51.875 181.823,51.875 			"/>
			<polygon fill-rule="evenodd" clip-rule="evenodd" fill="#FFFFFF" points="168.468,55.337 166.519,55.337 168.145,45.927 
				171.537,45.927 171.858,51.51 174.202,45.927 177.743,45.927 176.079,55.337 174.13,55.337 175.362,48.306 175.285,48.306 
				172.367,55.337 170.167,55.337 170.154,55.043 170.102,54.262 170.038,53.152 169.966,51.875 169.894,50.593 169.829,49.468 
				169.779,48.651 169.765,48.306 169.744,48.306 169.702,48.306 169.658,48.306 169.658,48.306 168.468,55.337 168.468,55.337 			
				"/>
			<polyline fill="none" stroke="#FFFFFF" stroke-width="0.204" stroke-miterlimit="2.6131" points="168.468,55.337 166.519,55.337 
				168.145,45.927 171.537,45.927 171.858,51.51 174.202,45.927 177.743,45.927 176.079,55.337 174.13,55.337 175.362,48.306 
				175.285,48.306 172.367,55.337 170.167,55.337 170.167,55.337 170.154,55.043 170.102,54.262 170.038,53.152 169.966,51.875 
				169.894,50.593 169.829,49.468 169.779,48.651 169.765,48.306 169.765,48.306 169.744,48.306 169.702,48.306 169.658,48.306 
				169.658,48.306 168.468,55.337 			"/>
			<polygon fill-rule="evenodd" clip-rule="evenodd" fill="#FFFFFF" points="219.124,53.746 218.83,55.337 217.03,55.337 
				217.045,55.043 217.052,54.786 217.052,54.593 217.067,54.507 216.973,54.614 216.864,54.721 216.735,54.821 216.593,54.923 
				216.442,55.015 216.27,55.101 216.091,55.187 215.913,55.259 215.717,55.315 215.518,55.373 215.317,55.41 215.118,55.438 
				214.907,55.452 214.708,55.459 214.513,55.438 214.321,55.41 214.063,55.345 213.834,55.273 213.633,55.18 213.447,55.072 
				213.288,54.958 213.152,54.829 213.037,54.692 212.936,54.549 212.851,54.398 212.786,54.24 212.729,54.083 212.694,53.926 
				212.665,53.761 212.643,53.595 212.628,53.437 212.628,53.28 212.643,53 212.687,52.735 212.751,52.485 212.844,52.241 
				212.951,52.011 213.089,51.804 213.238,51.604 213.403,51.424 213.591,51.259 213.782,51.108 213.991,50.972 214.212,50.857 
				214.435,50.758 214.671,50.678 214.907,50.614 215.151,50.571 215.166,50.571 215.202,50.563 215.252,50.556 215.324,50.549 
				215.416,50.535 215.518,50.528 215.625,50.513 215.739,50.499 215.861,50.485 215.99,50.471 216.112,50.463 216.235,50.449 
				216.35,50.442 216.449,50.434 216.549,50.428 216.628,50.428 216.8,50.428 216.973,50.434 217.137,50.442 217.296,50.442 
				217.43,50.449 217.547,50.456 217.611,50.463 217.641,50.463 217.654,50.413 217.676,50.284 217.696,50.133 217.711,49.997 
				217.681,49.84 217.626,49.695 217.532,49.567 217.423,49.459 217.296,49.368 217.145,49.302 216.986,49.259 216.814,49.245 
				216.613,49.238 216.399,49.231 216.176,49.231 215.948,49.238 215.71,49.252 215.481,49.273 215.252,49.295 215.029,49.324 
				214.815,49.352 214.607,49.388 214.422,49.423 214.249,49.459 214.09,49.504 213.961,49.546 213.862,49.596 213.782,49.639 
				214.286,47.912 214.443,47.847 214.607,47.79 214.771,47.74 214.944,47.703 215.123,47.667 215.302,47.64 215.488,47.61 
				215.682,47.596 215.883,47.582 216.091,47.574 216.298,47.567 216.519,47.567 216.743,47.567 216.973,47.567 217.216,47.574 
				217.46,47.582 217.661,47.596 217.877,47.632 218.098,47.682 218.329,47.747 218.55,47.834 218.771,47.934 218.987,48.055 
				219.188,48.191 219.367,48.35 219.533,48.521 219.675,48.714 219.782,48.929 219.861,49.16 219.911,49.403 219.911,49.675 
				219.876,49.962 219.124,53.746 219.124,53.746 			"/>
			<polygon fill-rule="evenodd" clip-rule="evenodd" fill="#FFFFFF" points="218.83,55.388 218.873,55.345 219.166,53.753 
				219.079,53.739 218.786,55.331 218.83,55.287 218.83,55.388 218.865,55.38 218.873,55.345 218.83,55.388 218.83,55.388 			"/>
			<polygon fill-rule="evenodd" clip-rule="evenodd" fill="#FFFFFF" points="216.986,55.337 217.03,55.388 218.83,55.388 
				218.83,55.287 217.03,55.287 217.073,55.337 216.986,55.337 216.98,55.388 217.03,55.388 216.986,55.337 216.986,55.337 			"/>
			<polygon fill-rule="evenodd" clip-rule="evenodd" fill="#FFFFFF" points="217.102,54.534 217.038,54.477 217.008,54.593 
				217.001,54.786 217.001,55.043 216.986,55.337 217.073,55.337 217.087,55.043 217.102,54.786 217.093,54.593 217.093,54.534 
				217.03,54.477 217.102,54.534 217.102,54.534 			"/>
			<polygon fill-rule="evenodd" clip-rule="evenodd" fill="#FFFFFF" points="214.314,55.452 214.314,55.452 214.513,55.481 
				214.708,55.502 214.907,55.496 215.118,55.481 215.324,55.452 215.525,55.416 215.725,55.36 215.926,55.302 216.104,55.23 
				216.291,55.144 216.462,55.059 216.613,54.958 216.765,54.857 216.894,54.758 217.008,54.642 217.102,54.534 217.03,54.477 
				216.936,54.585 216.837,54.685 216.707,54.786 216.571,54.886 216.42,54.972 216.248,55.059 216.077,55.144 215.898,55.215 
				215.71,55.273 215.511,55.331 215.309,55.367 215.118,55.394 214.907,55.41 214.708,55.416 214.513,55.394 214.326,55.367 
				214.326,55.367 214.314,55.452 214.314,55.452 			"/>
			<polygon fill-rule="evenodd" clip-rule="evenodd" fill="#FFFFFF" points="212.578,53.28 212.578,53.28 212.586,53.437 
				212.6,53.595 212.621,53.768 212.65,53.933 212.687,54.09 212.744,54.255 212.809,54.42 212.901,54.57 213.002,54.721 
				213.117,54.857 213.26,54.993 213.425,55.108 213.611,55.223 213.819,55.315 214.053,55.388 214.314,55.452 214.326,55.367 
				214.07,55.302 213.849,55.23 213.653,55.138 213.467,55.036 213.316,54.923 213.187,54.8 213.072,54.664 212.973,54.527 
				212.895,54.377 212.829,54.226 212.772,54.077 212.737,53.918 212.707,53.753 212.687,53.595 212.672,53.437 212.68,53.28 
				212.68,53.28 212.578,53.28 212.578,53.28 			"/>
			<polygon fill-rule="evenodd" clip-rule="evenodd" fill="#FFFFFF" points="215.151,50.528 215.151,50.528 214.902,50.571 
				214.658,50.636 214.422,50.714 214.192,50.814 213.969,50.929 213.753,51.073 213.561,51.224 213.375,51.395 213.201,51.574 
				213.052,51.775 212.908,51.99 212.801,52.227 212.707,52.47 212.643,52.728 212.6,53 212.578,53.28 212.68,53.28 212.687,53 
				212.729,52.743 212.794,52.499 212.886,52.255 212.995,52.033 213.124,51.832 213.275,51.631 213.432,51.453 213.616,51.295 
				213.812,51.144 214.011,51.016 214.234,50.9 214.448,50.801 214.686,50.722 214.915,50.657 215.151,50.614 215.151,50.614 
				215.151,50.528 215.151,50.528 			"/>
			<polygon fill-rule="evenodd" clip-rule="evenodd" fill="#FFFFFF" points="216.628,50.377 216.628,50.377 216.549,50.377 
				216.449,50.392 216.35,50.4 216.235,50.406 216.112,50.42 215.99,50.428 215.861,50.442 215.739,50.456 215.625,50.471 
				215.518,50.485 215.416,50.492 215.324,50.507 215.252,50.513 215.195,50.52 215.166,50.528 215.151,50.528 215.151,50.614 
				215.166,50.614 215.21,50.606 215.252,50.6 215.324,50.593 215.416,50.578 215.518,50.571 215.625,50.556 215.739,50.541 
				215.861,50.528 215.99,50.513 216.112,50.507 216.235,50.492 216.35,50.485 216.449,50.477 216.549,50.477 216.628,50.477 
				216.628,50.477 216.628,50.377 216.628,50.377 			"/>
			<polygon fill-rule="evenodd" clip-rule="evenodd" fill="#FFFFFF" points="217.596,50.456 217.641,50.42 217.611,50.42 
				217.547,50.413 217.43,50.406 217.296,50.392 217.137,50.392 216.973,50.392 216.8,50.377 216.628,50.377 216.628,50.477 
				216.8,50.477 216.973,50.477 217.137,50.492 217.296,50.492 217.43,50.492 217.547,50.499 217.611,50.507 217.641,50.507 
				217.681,50.471 217.641,50.507 217.676,50.513 217.681,50.471 217.596,50.456 217.596,50.456 			"/>
			<polygon fill-rule="evenodd" clip-rule="evenodd" fill="#FFFFFF" points="217.668,49.997 217.661,49.997 217.654,50.133 
				217.631,50.277 217.611,50.406 217.596,50.456 217.681,50.471 217.696,50.42 217.718,50.29 217.74,50.133 217.762,49.997 
				217.753,49.997 217.668,49.997 217.668,49.997 			"/>
			<polygon fill-rule="evenodd" clip-rule="evenodd" fill="#FFFFFF" points="216.814,49.288 216.814,49.295 216.98,49.302 
				217.13,49.345 217.274,49.41 217.395,49.496 217.495,49.596 217.582,49.718 217.641,49.847 217.668,49.997 217.753,49.997 
				217.726,49.833 217.668,49.675 217.567,49.539 217.453,49.423 217.316,49.324 217.157,49.259 216.993,49.217 216.814,49.195 
				216.814,49.202 216.814,49.288 216.814,49.288 			"/>
			<polygon fill-rule="evenodd" clip-rule="evenodd" fill="#FFFFFF" points="213.74,49.632 213.812,49.675 213.884,49.639 
				213.976,49.589 214.098,49.546 214.256,49.504 214.428,49.468 214.614,49.431 214.823,49.395 215.029,49.368 215.252,49.337 
				215.481,49.316 215.71,49.295 215.948,49.281 216.176,49.281 216.399,49.281 216.613,49.281 216.814,49.288 216.814,49.202 
				216.613,49.195 216.399,49.18 216.176,49.18 215.948,49.195 215.71,49.209 215.481,49.231 215.252,49.252 215.029,49.281 
				214.808,49.309 214.599,49.345 214.413,49.381 214.242,49.417 214.085,49.459 213.948,49.504 213.84,49.553 213.753,49.603 
				213.827,49.646 213.74,49.632 213.74,49.632 			"/>
			<polygon fill-rule="evenodd" clip-rule="evenodd" fill="#FFFFFF" points="214.271,47.868 214.242,47.905 213.74,49.632 
				213.827,49.646 214.326,47.918 214.299,47.955 214.271,47.868 214.249,47.876 214.242,47.905 214.271,47.868 214.271,47.868 			
				"/>
			<polygon fill-rule="evenodd" clip-rule="evenodd" fill="#FFFFFF" points="217.46,47.539 217.46,47.539 217.216,47.525 
				216.973,47.517 216.743,47.517 216.519,47.517 216.298,47.517 216.091,47.532 215.883,47.539 215.682,47.554 215.488,47.567 
				215.295,47.596 215.118,47.625 214.937,47.661 214.764,47.697 214.592,47.747 214.428,47.804 214.271,47.868 214.299,47.955 
				214.457,47.89 214.622,47.834 214.778,47.782 214.952,47.747 215.131,47.711 215.309,47.682 215.488,47.653 215.682,47.64 
				215.883,47.625 216.091,47.618 216.298,47.618 216.519,47.618 216.743,47.618 216.973,47.618 217.216,47.625 217.46,47.625 
				217.46,47.625 217.46,47.539 217.46,47.539 			"/>
			<polygon fill-rule="evenodd" clip-rule="evenodd" fill="#FFFFFF" points="219.918,49.969 219.918,49.969 219.955,49.675 
				219.955,49.403 219.905,49.151 219.826,48.915 219.712,48.694 219.568,48.493 219.395,48.314 219.216,48.155 219.009,48.019 
				218.793,47.89 218.565,47.79 218.342,47.703 218.105,47.64 217.882,47.589 217.661,47.554 217.46,47.539 217.46,47.625 
				217.661,47.64 217.868,47.676 218.091,47.725 218.314,47.79 218.535,47.876 218.749,47.977 218.965,48.091 219.159,48.227 
				219.337,48.384 219.494,48.55 219.638,48.735 219.739,48.945 219.819,49.167 219.869,49.403 219.869,49.675 219.832,49.955 
				219.832,49.955 219.918,49.969 219.918,49.969 			"/>
			<polygon fill-rule="evenodd" clip-rule="evenodd" fill="#FFFFFF" points="219.166,53.753 219.166,53.753 219.918,49.969 
				219.832,49.955 219.079,53.739 219.079,53.739 219.166,53.753 219.166,53.753 			"/>
			<polygon fill-rule="evenodd" clip-rule="evenodd" fill="#F8B235" points="217.388,51.875 217.373,51.832 217.346,51.797 
				217.296,51.775 217.222,51.754 217.145,51.746 217.052,51.738 216.944,51.738 216.837,51.746 216.72,51.761 216.608,51.775 
				216.494,51.79 216.385,51.804 216.278,51.826 216.184,51.839 216.091,51.861 216.02,51.875 215.97,51.882 215.913,51.904 
				215.841,51.926 215.761,51.954 215.667,51.996 215.581,52.04 215.481,52.091 215.389,52.154 215.295,52.219 215.202,52.298 
				215.123,52.376 215.044,52.47 214.981,52.57 214.93,52.678 214.887,52.793 214.865,52.915 214.858,53.159 214.893,53.352 
				214.952,53.496 215.037,53.603 215.143,53.675 215.267,53.717 215.389,53.739 215.511,53.746 215.725,53.739 215.926,53.717 
				216.112,53.681 216.278,53.632 216.435,53.574 216.571,53.51 216.7,53.437 216.814,53.352 216.916,53.273 217.001,53.18 
				217.08,53.094 217.145,53 217.194,52.915 217.229,52.828 217.259,52.743 217.281,52.664 217.309,52.463 217.346,52.255 
				217.373,52.055 217.388,51.875 217.388,51.875 			"/>
			<polygon fill-rule="evenodd" clip-rule="evenodd" fill="#FFFFFF" points="232.153,54.356 232.168,54.19 232.225,53.997 
				232.327,53.825 232.449,53.675 232.598,53.553 232.77,53.467 232.956,53.409 233.157,53.388 233.36,53.409 233.544,53.467 
				233.717,53.553 233.867,53.675 233.989,53.825 234.088,53.997 234.147,54.19 234.162,54.356 233.946,54.356 233.939,54.226 
				233.896,54.068 233.824,53.926 233.73,53.803 233.616,53.703 233.481,53.632 233.323,53.581 233.157,53.567 232.993,53.581 
				232.836,53.632 232.698,53.703 232.583,53.803 232.491,53.926 232.419,54.068 232.377,54.226 232.362,54.356 232.153,54.356 
				232.153,54.356 			"/>
			<polygon fill-rule="evenodd" clip-rule="evenodd" fill="#FFFFFF" points="232.799,54.356 232.799,53.926 233.194,53.926 
				233.28,53.933 233.36,53.947 233.415,53.968 233.467,53.997 233.502,54.04 233.529,54.083 233.544,54.133 233.551,54.184 
				233.544,54.248 233.529,54.298 233.509,54.341 233.494,54.356 233.194,54.356 233.221,54.348 233.271,54.341 233.315,54.327 
				233.352,54.313 233.38,54.291 233.395,54.269 233.409,54.234 233.409,54.184 233.4,54.148 233.387,54.119 233.363,54.105 
				233.343,54.09 233.308,54.083 233.271,54.077 233.236,54.077 233.194,54.077 232.978,54.077 232.978,54.356 232.799,54.356 
				232.799,54.356 			"/>
			<polygon fill-rule="evenodd" clip-rule="evenodd" fill="#FFFFFF" points="232.153,54.356 232.148,54.398 232.168,54.606 
				232.225,54.8 232.327,54.972 232.449,55.115 232.598,55.236 232.77,55.331 232.956,55.388 233.157,55.41 233.36,55.388 
				233.544,55.331 233.717,55.236 233.867,55.115 233.989,54.972 234.088,54.8 234.147,54.606 234.169,54.398 234.162,54.356 
				233.946,54.356 233.954,54.398 233.939,54.57 233.896,54.729 233.824,54.865 233.73,54.985 233.616,55.087 233.481,55.165 
				233.323,55.215 233.157,55.23 232.993,55.215 232.836,55.165 232.698,55.087 232.583,54.985 232.491,54.865 232.419,54.729 
				232.377,54.57 232.362,54.398 232.362,54.356 232.153,54.356 232.153,54.356 			"/>
			<polygon fill-rule="evenodd" clip-rule="evenodd" fill="#FFFFFF" points="232.799,54.356 232.799,54.793 232.978,54.793 
				232.978,54.435 233.157,54.435 233.373,54.793 233.515,54.793 233.301,54.435 233.352,54.435 233.4,54.42 233.444,54.405 
				233.481,54.377 233.494,54.356 233.194,54.356 233.157,54.363 232.978,54.363 232.978,54.356 232.799,54.356 232.799,54.356 			
				"/>
			<path fill="none" stroke="#FFFFFF" stroke-width="0.204" stroke-miterlimit="2.6131" d="M232.148,54.398L232.148,54.398
				l0.02-0.208l0.057-0.194l0.101-0.172l0.122-0.15l0.149-0.121l0.172-0.087l0.186-0.058l0.201-0.021l0,0l0.203,0.021l0.184,0.058
				l0.173,0.087l0.149,0.121l0.122,0.15l0.1,0.172l0.059,0.194l0.022,0.208l0,0l-0.022,0.208l-0.059,0.193l-0.1,0.172l-0.122,0.143
				l-0.149,0.121l-0.173,0.095l-0.184,0.057l-0.203,0.022l0,0l-0.201-0.022l-0.186-0.057l-0.172-0.095l-0.149-0.121l-0.122-0.143
				l-0.101-0.172l-0.057-0.193L232.148,54.398 M232.978,54.793h-0.179v-0.867h0.395l0,0l0.087,0.007l0.079,0.014l0.055,0.022
				l0.052,0.029l0.035,0.043l0.028,0.043l0.015,0.049l0.007,0.051l0,0l-0.007,0.064l-0.015,0.05l-0.02,0.043l-0.028,0.036
				l-0.037,0.028L233.4,54.42l-0.048,0.015h-0.052l0.214,0.358h-0.142l-0.216-0.358h-0.179V54.793 M233.157,54.363L233.157,54.363
				l0.065-0.015l0.05-0.007l0.044-0.014l0.037-0.015l0.028-0.021l0.015-0.023l0.015-0.035v-0.051l0,0l-0.009-0.036l-0.013-0.029
				l-0.024-0.014l-0.02-0.014l-0.035-0.007l-0.037-0.006h-0.035h-0.042h-0.216v0.286H233.157 M233.157,55.23L233.157,55.23
				l0.166-0.014l0.159-0.051l0.135-0.078l0.114-0.101l0.094-0.12l0.072-0.136l0.042-0.158l0.015-0.172l0,0l-0.015-0.172
				l-0.042-0.158l-0.072-0.142l-0.094-0.123l-0.114-0.1l-0.135-0.071l-0.159-0.05l-0.166-0.015l0,0l-0.164,0.015l-0.157,0.05
				l-0.138,0.071l-0.114,0.1l-0.092,0.123l-0.072,0.142l-0.042,0.158l-0.015,0.172l0,0l0.015,0.172l0.042,0.158l0.072,0.136
				l0.092,0.12l0.114,0.101l0.138,0.078l0.157,0.051L233.157,55.23"/>
			<polygon fill-rule="evenodd" clip-rule="evenodd" fill="#FFFFFF" points="219.66,55.337 221.682,55.337 221.682,55.337 
				222.406,51.259 222.434,51.102 222.476,50.944 222.521,50.786 222.578,50.628 222.65,50.471 222.735,50.32 222.829,50.177 
				222.945,50.04 223.072,49.919 223.216,49.804 223.38,49.695 223.566,49.61 223.775,49.539 224.003,49.482 224.254,49.438 
				224.535,49.423 224.636,49.423 224.691,49.423 224.714,49.423 224.714,49.423 225.036,47.582 224.835,47.596 224.642,47.618 
				224.463,47.653 224.291,47.703 224.133,47.76 223.983,47.834 223.839,47.912 223.705,47.997 223.574,48.099 223.452,48.198 
				223.338,48.314 223.223,48.428 223.115,48.55 223.009,48.685 222.901,48.814 222.799,48.958 223.015,47.661 221.001,47.661 
				219.66,55.337 219.66,55.337 219.66,55.337 			"/>
			<polyline fill="none" stroke="#FFFFFF" stroke-width="0.204" stroke-miterlimit="2.6131" points="219.66,55.337 221.682,55.337 
				221.682,55.337 222.406,51.259 222.406,51.259 222.434,51.102 222.476,50.944 222.521,50.786 222.578,50.628 222.65,50.471 
				222.735,50.32 222.829,50.177 222.945,50.04 223.072,49.919 223.216,49.804 223.38,49.695 223.566,49.61 223.775,49.539 
				224.003,49.482 224.254,49.438 224.535,49.423 224.535,49.423 224.636,49.423 224.691,49.423 224.714,49.423 224.714,49.423 
				225.036,47.582 225.036,47.582 224.835,47.596 224.642,47.618 224.463,47.653 224.291,47.703 224.133,47.76 223.983,47.834 
				223.839,47.912 223.705,47.997 223.574,48.099 223.452,48.198 223.338,48.314 223.223,48.428 223.115,48.55 223.009,48.685 
				222.901,48.814 222.799,48.958 223.015,47.661 221.001,47.661 219.66,55.337 219.66,55.337 			"/>
			<polygon fill-rule="evenodd" clip-rule="evenodd" fill="#FFFFFF" points="200.681,55.337 202.702,55.337 202.737,55.337 
				203.425,51.259 203.454,51.102 203.489,50.951 203.526,50.801 203.576,50.657 203.633,50.513 203.705,50.377 203.79,50.248 
				203.891,50.127 204.006,50.018 204.135,49.911 204.292,49.825 204.465,49.747 204.666,49.681 204.887,49.625 205.131,49.589 
				205.411,49.567 205.431,49.567 205.461,49.575 205.496,49.582 205.533,49.582 205.57,49.589 205.597,49.596 205.618,49.603 
				205.625,49.603 205.634,49.575 205.655,49.488 205.682,49.36 205.719,49.202 205.769,49.015 205.819,48.814 205.885,48.614 
				205.948,48.412 206.007,48.277 206.079,48.14 206.149,48.005 206.221,47.883 206.285,47.776 206.335,47.69 206.37,47.64 
				206.385,47.618 206.378,47.618 206.35,47.61 206.313,47.603 206.263,47.596 206.213,47.596 206.156,47.589 206.106,47.582 
				206.057,47.582 205.834,47.596 205.634,47.618 205.446,47.653 205.275,47.697 205.109,47.754 204.959,47.826 204.823,47.897 
				204.694,47.983 204.572,48.077 204.458,48.184 204.351,48.292 204.242,48.412 204.135,48.535 204.033,48.672 203.926,48.814 
				203.819,48.958 204.078,47.661 202.021,47.661 200.681,55.337 200.681,55.337 200.681,55.337 			"/>
			<polyline fill="none" stroke="#FFFFFF" stroke-width="0.204" stroke-miterlimit="2.6131" points="200.681,55.337 202.702,55.337 
				202.737,55.337 203.425,51.259 203.425,51.259 203.454,51.102 203.489,50.951 203.526,50.801 203.576,50.657 203.633,50.513 
				203.705,50.377 203.79,50.248 203.891,50.127 204.006,50.018 204.135,49.911 204.292,49.825 204.465,49.747 204.666,49.681 
				204.887,49.625 205.131,49.589 205.411,49.567 205.411,49.567 205.431,49.567 205.461,49.575 205.496,49.582 205.533,49.582 
				205.57,49.589 205.597,49.596 205.618,49.603 205.625,49.603 205.625,49.603 205.634,49.575 205.655,49.488 205.682,49.36 
				205.719,49.202 205.769,49.015 205.819,48.814 205.885,48.614 205.948,48.412 205.948,48.412 206.007,48.277 206.079,48.14 
				206.149,48.005 206.221,47.883 206.285,47.776 206.335,47.69 206.37,47.64 206.385,47.618 206.385,47.618 206.378,47.618 
				206.35,47.61 206.313,47.603 206.263,47.596 206.213,47.596 206.156,47.589 206.106,47.582 206.057,47.582 206.057,47.582 
				205.834,47.596 205.634,47.618 205.446,47.653 205.275,47.697 205.109,47.754 204.959,47.826 204.823,47.897 204.694,47.983 
				204.572,48.077 204.458,48.184 204.351,48.292 204.242,48.412 204.135,48.535 204.033,48.672 203.926,48.814 203.819,48.958 
				204.078,47.661 202.021,47.661 200.681,55.337 200.681,55.337 			"/>
			<polygon fill-rule="evenodd" clip-rule="evenodd" fill="#F8B235" points="232.168,62.878 232.168,62.849 232.225,62.663 
				232.327,62.498 232.449,62.355 232.598,62.24 232.77,62.154 232.956,62.104 233.157,62.082 233.36,62.104 233.544,62.154 
				233.717,62.24 233.867,62.355 233.989,62.498 234.088,62.663 234.147,62.849 234.147,62.878 233.939,62.878 233.896,62.729 
				233.824,62.592 233.73,62.469 233.616,62.369 233.481,62.29 233.323,62.24 233.157,62.226 232.993,62.24 232.836,62.29 
				232.698,62.369 232.583,62.469 232.491,62.592 232.419,62.729 232.377,62.878 232.168,62.878 232.168,62.878 			"/>
			<polygon fill-rule="evenodd" clip-rule="evenodd" fill="#F8B235" points="232.799,62.878 232.799,62.628 233.194,62.628 
				233.28,62.628 233.36,62.642 233.415,62.655 233.467,62.683 233.502,62.72 233.529,62.764 233.544,62.813 233.551,62.878 
				233.409,62.878 233.409,62.842 233.4,62.806 233.387,62.777 233.363,62.764 233.343,62.749 233.308,62.742 233.271,62.735 
				233.236,62.735 233.194,62.735 232.978,62.735 232.978,62.878 232.799,62.878 232.799,62.878 			"/>
			<polygon fill-rule="evenodd" clip-rule="evenodd" fill="#F8B235" points="232.148,63.035 232.168,62.878 232.377,62.878 
				232.377,62.884 232.362,63.035 232.148,63.035 232.148,63.035 			"/>
			<polygon fill-rule="evenodd" clip-rule="evenodd" fill="#F8B235" points="232.799,63.035 232.799,62.878 232.978,62.878 
				232.978,63.021 233.157,63.021 233.221,63.008 233.271,63 233.315,62.985 233.352,62.971 233.38,62.95 233.395,62.928 
				233.409,62.893 233.409,62.878 233.551,62.878 233.551,62.878 233.544,62.928 233.529,62.971 233.509,63.008 233.481,63.035 
				232.799,63.035 232.799,63.035 			"/>
			<polygon fill-rule="evenodd" clip-rule="evenodd" fill="#F8B235" points="233.954,63.035 233.939,62.884 233.939,62.878 
				234.147,62.878 234.169,63.035 233.954,63.035 233.954,63.035 			"/>
			<polygon fill-rule="evenodd" clip-rule="evenodd" fill="#F8B235" points="232.148,63.035 232.148,63.057 232.168,63.264 
				232.225,63.458 232.327,63.631 232.449,63.781 232.598,63.903 232.77,63.988 232.956,64.046 233.157,64.068 233.36,64.046 
				233.544,63.988 233.717,63.903 233.867,63.781 233.989,63.631 234.088,63.458 234.147,63.264 234.169,63.057 234.169,63.035 
				233.954,63.035 233.954,63.057 233.939,63.229 233.896,63.387 233.824,63.523 233.73,63.643 233.616,63.746 233.481,63.824 
				233.323,63.874 233.157,63.889 232.993,63.874 232.836,63.824 232.698,63.746 232.583,63.643 232.491,63.523 232.419,63.387 
				232.377,63.229 232.362,63.057 232.362,63.035 232.148,63.035 232.148,63.035 			"/>
			<polygon fill-rule="evenodd" clip-rule="evenodd" fill="#F8B235" points="232.799,63.035 232.799,63.452 232.978,63.452 
				232.978,63.092 233.157,63.092 233.373,63.452 233.515,63.452 233.301,63.092 233.352,63.092 233.4,63.079 233.444,63.064 
				233.481,63.035 233.481,63.035 232.799,63.035 232.799,63.035 			"/>
			<path fill-rule="evenodd" clip-rule="evenodd" fill="#FFFFFF" d="M200.902,49.946l-0.057-0.428l-0.1-0.38l-0.144-0.329
				l-0.179-0.287l-0.216-0.244l-0.236-0.2l-0.258-0.172l-0.278-0.129l-0.288-0.109l-0.295-0.071l-0.291-0.05l-0.295-0.029
				l-0.278-0.008l-0.581,0.03l-0.516,0.085l-0.467,0.129l-0.415,0.18l-0.36,0.215l-0.315,0.243l-0.279,0.272l-0.23,0.287
				l-0.199,0.301l-0.166,0.315l-0.127,0.309l-0.109,0.307l-0.079,0.302l-0.057,0.278l-0.042,0.266l-0.029,0.23l-0.035,0.587
				l0.02,0.53l0.079,0.481l0.122,0.423l0.173,0.38l0.207,0.33l0.243,0.294l0.28,0.243l0.301,0.208l0.323,0.178l0.338,0.137
				l0.35,0.107l0.36,0.087l0.358,0.051l0.358,0.036l0.352,0.006h0.236l0.221-0.006h0.194l0.186-0.008l0.166-0.014l0.149-0.014
				l0.144-0.015l0.129-0.022l0.122-0.023l0.114-0.027l0.116-0.036l0.107-0.035l0.107-0.044l0.114-0.042l0.116-0.058l0.114-0.057
				l0.288-1.764l-0.21,0.122l-0.199,0.114l-0.208,0.087l-0.201,0.078l-0.194,0.064l-0.199,0.042l-0.196,0.036l-0.194,0.029
				l-0.192,0.015l-0.188,0.007h-0.194l-0.184-0.007l-0.188-0.015l-0.186-0.021l-0.177-0.022l-0.188-0.028l-0.144-0.029l-0.142-0.05
				l-0.146-0.064l-0.127-0.08l-0.129-0.085l-0.114-0.107l-0.107-0.108l-0.101-0.123l-0.087-0.121l-0.077-0.135l-0.057-0.131
				l-0.052-0.136l-0.029-0.136l-0.011-0.137l0.005-0.121l0.017-0.093h4.649l0.037-0.437l0.107-0.603l0.05-0.545L200.902,49.946z
				 M198.96,50.606h-2.619l0.002-0.006l-0.004-0.001l0.018-0.1l0.03-0.15l0.042-0.143l0.05-0.143l0.065-0.129l0.066-0.123
				l0.077-0.116l0.087-0.107l0.094-0.1l0.09-0.086l0.109-0.079l0.107-0.065l0.124-0.057l0.122-0.042l0.122-0.03l0.127-0.022
				l0.138-0.007l0.127,0.015l0.122,0.022l0.116,0.029l0.112,0.042l0.109,0.058l0.107,0.065l0.094,0.072l0.085,0.086l0.072,0.1
				l0.072,0.107l0.05,0.123l0.052,0.136l0.028,0.142l0.015,0.158l0.007,0.172L198.96,50.606z"/>
		</g>
	</g>
	<g>
		<path fill="#0073A5" d="M391.825,83.065c0,2.18-1.769,3.947-3.949,3.947H277.331c-2.18,0-3.947-1.767-3.947-3.947V16.935
			c0-2.18,1.767-3.947,3.947-3.947h110.545c2.18,0,3.949,1.767,3.949,3.947V83.065z"/>
		<g>
			<path fill="#FFFFFF" d="M310.132,48.277v-1.184l-0.566,1.184h-4.904l-0.616-1.271v1.271h-9.166l-1.083-2.564h-1.837l-1.147,2.564
				h-4.753v-7.739l3.484-7.883h6.671l0.937,2.234v-2.217h8.157l1.795,3.761l1.756-3.777h25.754c0,0,1.35-0.018,2.239,0.607
				l-0.006-0.607h6.488v0.854c0,0,1.167-0.854,2.892-0.854c1.724,0,11.449,0,11.449,0l1.005,2.267v-2.267h7.337l1.332,2.267v-2.267
				h7.014v15.636h-7.206l-1.693-2.726v2.711h-8.956l-1.26-2.792h-1.756l-1.18,2.792h-5.42c0,0-2.021-0.026-3.537-1.11
				c0,0.568,0,1.11,0,1.11h-10.791c0,0,0-3.117,0-3.648c0-0.529-0.406-0.492-0.406-0.492h-0.395v4.14H310.132z"/>
			<path fill="#FFFFFF" d="M304.747,51.663h14.179l2.047,2.317l2.093-2.317h10.902c0,0,1.024,0.026,1.996,0.544v-0.544
				c0,0,8.478,0,9.708,0c1.232,0,2.267,0.616,2.267,0.616v-0.616h12.479v0.568c0,0,0.889-0.568,2.084-0.568c1.193,0,8.13,0,8.13,0
				v0.568c0,0,1.024-0.568,2.106-0.568c1.085,0,6.383,0,6.383,0v14.734c0,0-0.839,0.95-2.575,0.95h-8.416v-0.468
				c0,0-0.8,0.468-2.021,0.468c-1.219,0-22.355,0-22.355,0s0-3.43,0-3.808c0-0.374-0.162-0.443-0.496-0.443h-0.308v4.251h-6.986
				v-4.225c0,0-0.775,0.417-2.069,0.417c-1.293,0-2.512,0-2.512,0v3.808h-8.611l-1.959-2.39l-2.095,2.39h-13.971V51.663z"/>
			<polygon fill="#0073A5" points="349.436,54.014 358.335,54.014 358.335,56.401 352.16,56.401 352.16,58.481 358.161,58.481 
				358.161,60.583 352.16,60.583 352.16,62.773 358.335,62.773 358.335,65.1 349.436,65.1 			"/>
			<path fill="#0073A5" d="M375.526,58.333c3.344,0.171,3.624,1.842,3.624,3.624c0,2.077-1.708,3.192-3.489,3.192h-5.717v-2.377
				h4.454c0.756,0,1.881,0,1.881-1.064c0-0.505-0.197-0.828-1.001-0.913c-0.358-0.052-1.68-0.125-1.881-0.129
				c-3.021-0.079-3.725-1.582-3.725-3.412c0-2.079,1.461-3.215,3.244-3.215h5.716v2.375h-4.183
				c-0.952,0.009-1.979-0.112-1.979,0.963c0,0.681,0.507,0.817,1.151,0.88C373.842,58.258,375.326,58.335,375.526,58.333z"/>
			<path fill="#0073A5" d="M365.277,58.333c3.346,0.171,3.626,1.842,3.626,3.624c0,2.077-1.706,3.192-3.489,3.192h-5.716v-2.377
				h4.454c0.754,0,1.881,0,1.881-1.064c0-0.505-0.199-0.828-1.003-0.913c-0.358-0.052-1.682-0.125-1.879-0.129
				c-3.025-0.079-3.724-1.582-3.724-3.412c0-2.079,1.459-3.215,3.24-3.215h5.715v2.375h-4.181c-0.954,0.009-1.981-0.112-1.981,0.963
				c0,0.681,0.509,0.817,1.153,0.88C363.595,58.258,365.079,58.335,365.277,58.333z"/>
			<path fill="#0073A5" d="M333.005,54.038h-9.552l-3.119,3.44l-3.017-3.464h-10.728V65.1h10.38l3.268-3.663l3.191,3.689h5.223
				v-3.764h3.661c1.411,0,3.986-0.048,3.986-3.934C336.297,54.656,334.342,54.038,333.005,54.038z M315.549,62.773h-6.276v-2.189
				h6.003v-2.103h-6.003v-2.08l6.619,0.015l2.65,3.017L315.549,62.773z M325.953,64.06l-3.91-4.627l3.91-4.33V64.06z
				 M332.089,59.079h-3.39v-2.661h3.401c1.14,0,1.499,0.73,1.499,1.274C333.599,58.435,333.203,59.079,332.089,59.079z"/>
			<path fill="#0073A5" d="M346.153,60.076c1.486-0.741,1.881-1.732,1.881-3.069c0-2.374-1.929-2.967-3.266-2.967h-7.077v11.086
				h2.722v-3.912h3.563c0.941,0,1.311,0.941,1.335,1.881l0.072,2.03h2.65l-0.1-2.278C347.935,61.065,347.442,60.224,346.153,60.076z
				 M343.804,58.929h-3.39v-2.512h3.401c1.138,0,1.498,0.73,1.498,1.274C345.312,58.433,344.918,58.929,343.804,58.929z"/>
			<rect x="338.782" y="34.876" fill="#0073A5" width="2.722" height="11.099"/>
			<polygon fill="#0073A5" points="316.501,34.889 325.396,34.889 325.396,37.275 319.223,37.275 319.223,39.356 325.222,39.356 
				325.222,41.458 319.223,41.458 319.223,43.647 325.396,43.647 325.396,45.975 316.501,45.975 			"/>
			<path fill="#0073A5" d="M335.475,40.925c1.487-0.74,1.881-1.732,1.881-3.069c0-2.375-1.931-2.967-3.266-2.967h-7.078v11.086
				h2.722v-3.91h3.563c0.941,0,1.313,0.939,1.337,1.879l0.074,2.031h2.648l-0.098-2.278
				C337.258,41.916,336.762,41.074,335.475,40.925z M333.123,39.778h-3.39v-2.512h3.403c1.136,0,1.498,0.73,1.498,1.274
				C334.634,39.284,334.237,39.778,333.123,39.778z"/>
			<path fill="#0073A5" d="M310.223,34.889l-3.34,7.436l-3.329-7.436h-4.268v10.677l-4.751-10.677h-3.602l-4.851,11.086h2.872
				l1.062-2.475h5.433l1.077,2.475h5.479v-8.229l3.639,8.229h2.475l3.724-8.093v8.093h2.722V34.889H310.223z M291.046,41.108
				l1.623-3.875l1.691,3.875H291.046z"/>
			<path fill="#0073A5" d="M369.591,34.883v7.676L365,34.883h-4.022v10.411l-4.637-10.405h-3.602l-3.749,8.587
				c0,0-1.584,0-1.745-0.039c-0.655-0.135-1.68-0.598-1.693-2.552V40.08c0-2.599,1.411-2.789,3.22-2.789h1.68v-2.409h-3.554
				c-1.237,0-3.93,0.944-4.021,5.498c-0.063,3.069,1.274,5.599,4.294,5.599h3.589l1.062-2.475h5.431l1.077,2.475h5.371v-8.119
				l4.898,8.119h3.713V34.883H369.591z M352.872,41.113l1.621-3.875l1.708,3.875H352.872z"/>
		</g>
	</g>
</g>
</svg>
