<?xml version="1.0" encoding="utf-8"?>
<!-- Generator: Adobe Illustrator 22.1.0, SVG Export Plug-In . SVG Version: 6.00 Build 0)  -->
<svg version="1.1" id="Layer_1" xmlns="http://www.w3.org/2000/svg" xmlns:xlink="http://www.w3.org/1999/xlink" x="0px" y="0px"
	 viewBox="0 0 512 512" enable-background="new 0 0 512 512" xml:space="preserve">
<g>
	<path fill="#FFFFFF" d="M365.934,13.084c-8.588-1.844-37.022-8.724-116.851-8.724c-79.821,0-93.401,6.7-103.038,8.724
		c-9.651,2.024-14.647,6.608-14.647,14.792v356.393c0,68.116,54.681,123.327,122.155,123.327h4.891
		c67.457,0,122.155-55.212,122.155-123.327V27.876C380.599,19.692,374.522,14.884,365.934,13.084"/>
	<path fill="#A6A8AB" d="M365.934,13.084l0.922-4.316c-4.259-0.9-13.857-3.148-32.165-5.08C316.356,1.708,289.116,0,249.083,0
		c-40.029,0-63.541,1.664-78.411,3.596c-14.783,1.936-21.22,4.272-25.531,5.172c-5.295,1.124-9.791,3.012-13.119,6.292
		c-3.367,3.24-5.067,7.868-5.018,12.816v356.393c-0.013,35.252,14.151,67.216,37.044,90.328
		C186.921,497.704,218.603,512,253.553,512h4.891c34.922,0,66.614-14.296,89.489-37.404c22.893-23.112,37.065-55.076,37.065-90.328
		V27.876c0.027-5.172-2.081-9.8-5.488-12.948c-3.398-3.24-7.824-5.128-12.671-6.16L365.934,13.084l-0.914,4.316
		c3.75,0.764,6.665,2.156,8.447,3.912c1.774,1.708,2.678,3.596,2.731,6.564v356.393c0,32.868-13.189,62.583-34.502,84.12
		c-21.32,21.536-50.746,34.8-83.254,34.8h-4.891c-32.526,0-61.929-13.264-83.259-34.8c-21.325-21.536-34.501-51.251-34.501-84.12
		V27.876c0.035-3.236,0.83-4.948,2.393-6.564c1.589-1.576,4.426-3.012,8.773-3.912c5.321-1.124,10.511-3.148,24.868-5.08
		c14.305-1.888,37.469-3.552,77.257-3.552s66.702,1.752,84.668,3.639c18.01,1.936,26.923,4.048,31.269,4.992L365.934,13.084"/>
	<path fill="#FFFFFF" d="M258.567,497.66h-4.874c-61.881,0-112.215-49.64-112.215-113.396c0-150.07-14.678-346.005,112.913-346.005
		c127.595,0,116.381,191.843,116.381,346.005C370.772,437.052,320.439,497.66,258.567,497.66"/>
	<path fill="#D0D2D3" d="M258.567,497.66v-4.408h-4.874c-59.475,0-107.797-47.611-107.815-108.988
		c0-28.095-0.518-57.767-0.518-87.438c-0.013-64.428,2.494-128.767,17.602-176.379c7.556-23.784,18.203-43.252,32.907-56.695
		c14.735-13.396,33.491-21.084,58.522-21.084c26.207,0.044,45.71,8.224,60.981,22.616c22.875,21.536,35.985,57.908,43.019,101.826
		c7.096,43.932,8.246,95.228,8.246,146.303c0,23.92-0.254,47.792-0.254,70.851c0.026,25-12.057,52.472-31.718,73.472
		c-19.67,21.084-46.646,35.515-76.098,35.515v8.812c32.402-0.044,61.53-15.872,82.517-38.303
		c20.97-22.484,34.053-51.704,34.089-79.496c0-22.971,0.263-46.887,0.263-70.851c-0.044-68.291-1.976-137.307-17.835-189.998
		c-7.912-26.304-19.38-48.648-36.178-64.52c-16.781-15.912-38.971-25.083-67.031-25.039c-26.84-0.044-48.182,8.491-64.45,23.424
		c-24.42,22.344-37.487,58.176-44.771,100.259c-7.249,42.128-8.605,90.776-8.605,139.287c0,29.759,0.522,59.435,0.522,87.438
		c-0.018,33.053,13.066,62.54,34.185,83.715c21.092,21.181,50.281,34.084,82.42,34.084h4.874V497.66"/>
	<path fill="#FFFFFF" d="M263.203,128.675c0,6.7-2.898,11.196-7.21,11.196c-4.311,0-7.2-4.496-7.2-11.196V51.976
		c0-6.7,2.889-11.152,7.2-11.152c4.312,0,7.21,4.452,7.21,11.152V128.675"/>
	<path fill="#A6A8AB" d="M263.203,128.675h-4.4c0,2.744-0.637,4.764-1.282,5.756c-0.746,0.988-0.984,0.988-1.528,1.032
		c-0.553-0.044-0.79-0.044-1.51-1.032c-0.672-0.992-1.308-3.012-1.291-5.756V51.976c-0.017-2.7,0.619-4.724,1.291-5.712
		c0.72-0.988,0.957-0.988,1.51-1.08c0.545,0.092,0.782,0.092,1.528,1.08c0.645,0.988,1.282,3.012,1.282,5.712v76.699h8.799V51.976
		c-0.018-4.004-0.835-7.556-2.705-10.476c-1.8-2.924-5.146-5.129-8.904-5.084c-3.749-0.044-7.113,2.16-8.917,5.084
		c-1.875,2.92-2.674,6.471-2.674,10.476v76.699c0,4,0.799,7.552,2.674,10.52c1.805,2.924,5.168,5.124,8.917,5.08
		c3.759,0.044,7.104-2.156,8.904-5.08c1.87-2.968,2.687-6.52,2.705-10.52H263.203"/>
	<path fill="#E6E7E8" d="M190.082,455.756c-36.407-36.415-36.407-95.403,0-131.823c36.385-36.416,95.408-36.416,131.832,0
		c36.407,36.42,36.407,95.408,0,131.823C285.49,492.172,226.485,492.172,190.082,455.756"/>
	<path fill="#A6A8AB" d="M190.082,455.756l3.086-3.104c-17.347-17.352-25.997-40.104-26.014-62.851
		c0.018-22.704,8.684-45.412,26.014-62.764c17.369-17.356,40.082-26.032,62.825-26.032s45.452,8.676,62.803,26.032
		c17.395,17.4,26.01,40.148,26.01,62.944c0,22.704-8.667,45.364-25.992,62.672c-17.369,17.356-40.077,26.032-62.821,26.032
		s-45.456-8.676-62.825-26.032L190.082,455.756l-3.131,3.104c19.068,19.06,44.069,28.592,69.042,28.592
		c24.965,0,49.974-9.532,69.029-28.592c19.011-19.02,28.6-43.971,28.583-68.88c0.018-25-9.501-50.088-28.601-69.147
		c-19.037-19.064-44.046-28.596-69.011-28.596c-24.973,0-49.974,9.532-69.042,28.596c-19.025,19.016-28.587,44.016-28.587,68.968
		c0,24.995,9.527,49.996,28.587,69.059L190.082,455.756"/>
	<path fill="#58595B" d="M212.769,377.077c7.003,0,12.711,5.708,12.711,12.68c0,7.012-5.69,12.724-12.711,12.724
		c-7.012,0-12.697-5.712-12.697-12.724C200.071,382.785,205.757,377.077,212.769,377.077"/>
	<path fill="#58595B" d="M295.729,377.077c7.016,0,12.689,5.708,12.689,12.724c0,6.968-5.673,12.68-12.689,12.68
		c-7.007,0-12.698-5.712-12.698-12.724C283.031,382.785,288.721,377.077,295.729,377.077"/>
	<path fill="#A6A8AB" d="M179.211,435.841v-40.104h-17.554v8.812h8.764v31.291H179.211 M170.421,343.401v31.291h-8.764v8.812h17.554
		v-40.104H170.421z M332.531,343.401l0.018,40.104h17.536v-8.812h-8.746l-0.018-31.291H332.531z M341.321,435.841v-31.291h8.764
		v-8.812h-17.554v40.104H341.321z"/>
	<polyline fill="#A6A8AB" points="252.301,484.8 252.301,474.64 259.7,474.64 259.7,484.8 268.489,484.8 268.489,465.828 
		243.507,465.828 243.507,484.8 252.301,484.8 	"/>
	<polyline fill="#A6A8AB" points="261.846,294.889 261.846,311.569 266.241,311.569 266.241,307.161 245.755,307.161 
		245.755,311.569 250.154,311.569 250.154,294.889 241.356,294.889 241.356,315.978 270.641,315.978 270.641,294.889 
		261.846,294.889 	"/>
	<path fill="#4CB648" d="M261.21,49.499c0,2.924-2.336,5.216-5.216,5.216c-2.889,0-5.225-2.292-5.225-5.216
		c0-2.876,2.336-5.216,5.225-5.216C258.874,44.283,261.21,46.624,261.21,49.499"/>
	<path fill="#58595B" d="M261.21,130.831c0,2.88-2.336,5.216-5.216,5.216c-2.889,0-5.225-2.336-5.225-5.216
		c0-2.876,2.336-5.212,5.225-5.212C258.874,125.619,261.21,127.955,261.21,130.831"/>
</g>
</svg>
