<?xml version="1.0" encoding="utf-8"?>
<!-- Generator: Adobe Illustrator 22.1.0, SVG Export Plug-In . SVG Version: 6.00 Build 0)  -->
<svg version="1.0" id="content" xmlns="http://www.w3.org/2000/svg" xmlns:xlink="http://www.w3.org/1999/xlink" x="0px" y="0px"
	 viewBox="0 0 24 24" enable-background="new 0 0 24 24" xml:space="preserve">
<g>
	<g>
		<polygon fill="#FFFFFF" points="20.018,8.114 19.566,7.332 16.45,10.449 20.222,11.46 20.555,10.215 17.703,9.451 		"/>
		<polygon fill="#FFFFFF" points="3.778,11.46 7.874,10.362 9.691,11.411 10.634,10.468 8.519,9.247 7.421,5.15 6.176,5.484 
			6.941,8.335 4.626,6.999 3.981,8.114 6.296,9.451 3.444,10.215 		"/>
		<polygon fill="#FFFFFF" points="11.356,9.745 12.644,8.458 12.644,7.608 15.643,4.609 14.732,3.699 12.644,5.787 12.644,3.113 
			11.356,3.113 11.356,5.787 9.268,3.699 8.357,4.609 11.356,7.608 		"/>
		<polygon fill="#FFFFFF" points="3.778,12.54 3.445,13.785 6.297,14.549 3.981,15.886 4.433,16.668 7.55,13.551 		"/>
		<polygon fill="#FFFFFF" points="20.222,12.54 16.125,13.638 14.309,12.589 13.366,13.533 15.481,14.754 16.578,18.85 
			17.823,18.517 17.059,15.665 19.373,17.001 20.018,15.886 17.703,14.549 20.555,13.785 		"/>
		<polygon fill="#FFFFFF" points="12.644,14.255 11.356,15.543 11.356,16.392 8.357,19.391 9.268,20.301 11.356,18.213 
			11.356,20.887 12.644,20.887 12.644,18.213 14.732,20.301 15.643,19.391 12.644,16.392 		"/>
	</g>
	
		<rect x="0.269" y="11.18" transform="matrix(0.7071 -0.7071 0.7071 0.7071 -4.9706 11.9999)" fill="#FFFFFF" width="23.462" height="1.64"/>
</g>
</svg>
