<?xml version="1.0" encoding="utf-8"?>
<!-- Generator: Adobe Illustrator 22.1.0, SVG Export Plug-In . SVG Version: 6.00 Build 0)  -->
<svg version="1.0" id="content" xmlns="http://www.w3.org/2000/svg" xmlns:xlink="http://www.w3.org/1999/xlink" x="0px" y="0px"
	 viewBox="0 0 24 24" enable-background="new 0 0 24 24" xml:space="preserve">
<g>
	<g>
		<path fill="#E6511E" d="M14.213,5.82c0.451-1.983,0.237-3.532,0.213-3.701C14.09,3.589,12.727,7.07,9.07,9.185
			c-4.334,2.506-5.294,7.45-4.883,10.166c-0.086-0.612,2.357-5.33,5.356-7.066C11.92,10.911,13.576,8.614,14.213,5.82z"/>
		<path fill="#E6511E" d="M5.483,9.817C7.005,8.939,8.065,7.468,8.472,5.68C8.761,4.411,8.624,3.42,8.609,3.311
			C8.394,4.253,7.521,6.48,5.181,7.834c-2.774,1.604-3.388,4.768-3.125,6.506C2.001,13.948,3.564,10.929,5.483,9.817z"/>
	</g>
	<polygon fill="#37A8DB" points="22,13.575 19.248,13.137 21.74,11.33 20.951,10.242 17.372,12.838 14.001,12.302 16.152,9.65 
		20.549,9.191 20.409,7.855 17.348,8.175 19.103,6.01 18.06,5.164 12.225,12.359 6.389,19.554 7.432,20.4 9.188,18.236 
		9.507,21.297 10.843,21.158 10.384,16.761 12.536,14.108 13.757,17.297 11.955,21.335 13.182,21.881 14.436,19.07 15.433,21.673 
		16.686,21.193 15.69,18.59 18.501,19.845 19.048,18.618 15.01,16.817 13.789,13.628 17.161,14.165 19.757,17.743 20.845,16.954 
		19.038,14.463 21.789,14.901 	"/>
</g>
</svg>
