<?xml version="1.0" encoding="utf-8"?>
<!-- Generator: Adobe Illustrator 22.1.0, SVG Export Plug-In . SVG Version: 6.00 Build 0)  -->
<svg version="1.0" id="content" xmlns="http://www.w3.org/2000/svg" xmlns:xlink="http://www.w3.org/1999/xlink" x="0px" y="0px"
	 viewBox="0 0 24 24" enable-background="new 0 0 24 24" xml:space="preserve">
<g>
	<g>
		<path fill="#FFFFFF" d="M8.17,13.671c0.324-0.778,0.873-1.603,1.505-2.553c0.718-1.078,1.567-2.352,2.325-3.93
			c0.3,0.624,0.614,1.188,0.929,1.724l1.134-1.134c-0.475-0.84-0.935-1.77-1.335-2.838L12,3l-0.728,1.94
			c-0.836,2.231-1.928,3.87-2.891,5.316c-1.114,1.672-2.075,3.117-2.075,4.789c0,0.157,0.011,0.311,0.024,0.465L8.17,13.671z"/>
		<path fill="#FFFFFF" d="M15.072,12.263c0.633,1.012,1.068,1.898,1.068,2.783c0,2.282-1.857,4.139-4.14,4.139
			c-1.067,0-2.032-0.417-2.767-1.083l-1.105,1.105c1.017,0.947,2.376,1.531,3.872,1.531c3.14,0,5.694-2.554,5.694-5.693
			c0-1.372-0.65-2.591-1.497-3.908L15.072,12.263z"/>
	</g>
	
		<rect x="0.88" y="11.81" transform="matrix(0.7071 -0.7071 0.7071 0.7071 -5.3854 12.1718)" fill="#FFFFFF" width="22.241" height="1.554"/>
</g>
</svg>
