<?xml version="1.0" encoding="utf-8"?>
<!-- Generator: Adobe Illustrator 22.1.0, SVG Export Plug-In . SVG Version: 6.00 Build 0)  -->
<svg version="1.0" id="content" xmlns="http://www.w3.org/2000/svg" xmlns:xlink="http://www.w3.org/1999/xlink" x="0px" y="0px"
	 viewBox="0 0 24 24" enable-background="new 0 0 24 24" xml:space="preserve">
<polygon fill="#37A8DB" points="21.252,12.608 16.642,13.843 13.45,12 16.642,10.157 21.252,11.392 21.627,9.992 18.418,9.131 
	21.022,7.628 20.297,6.372 17.693,7.876 18.552,4.667 17.152,4.291 15.917,8.901 12.724,10.745 12.724,7.058 16.099,3.683 
	15.075,2.659 12.724,5.009 12.724,2 11.275,2 11.275,5.008 8.925,2.659 7.901,3.683 11.275,7.058 11.275,10.745 8.083,8.902 
	6.847,4.291 5.447,4.667 6.307,7.876 3.702,6.372 2.977,7.628 5.582,9.132 2.373,9.992 2.748,11.392 7.357,10.157 10.55,12 
	7.358,13.843 2.748,12.608 2.373,14.008 5.582,14.868 2.977,16.372 3.702,17.628 6.307,16.124 5.447,19.333 6.847,19.709 
	8.083,15.099 11.275,13.255 11.275,16.942 7.901,20.317 8.925,21.341 11.275,18.991 11.275,22 12.724,22 12.724,18.991 
	15.075,21.341 16.099,20.317 12.724,16.942 12.724,13.255 15.917,15.099 17.152,19.708 18.552,19.333 17.693,16.124 20.297,17.628 
	21.022,16.372 18.417,14.868 21.627,14.008 "/>
</svg>
