<?xml version="1.0" encoding="utf-8"?>
<!-- Generator: Adobe Illustrator 22.1.0, SVG Export Plug-In . SVG Version: 6.00 Build 0)  -->
<svg version="1.0" id="content" xmlns="http://www.w3.org/2000/svg" xmlns:xlink="http://www.w3.org/1999/xlink" x="0px" y="0px"
	 viewBox="0 0 24 24" enable-background="new 0 0 24 24" xml:space="preserve">
<g>
	<path fill="#FFFFFF" d="M17.514,6.472c-3.044-3.044-7.998-3.044-11.042,0C5.324,7.621,4.573,9.082,4.3,10.699l-0.085,0.505H2
		l3.47,3.47l3.47-3.47H6.737l0.069-0.32c0.217-1.008,0.712-1.922,1.433-2.642c2.07-2.069,5.437-2.069,7.507,0
		c0.244,0.244,0.454,0.508,0.64,0.784l1.789-1.789C17.972,6.972,17.756,6.714,17.514,6.472z"/>
	<path fill="#FFFFFF" d="M22,12.796l-3.47-3.47l-3.47,3.47h2.203l-0.069,0.321c-0.217,1.008-0.712,1.922-1.433,2.642
		c-2.07,2.069-5.437,2.069-7.507,0C8.01,15.515,7.8,15.25,7.614,14.975l-1.789,1.789c0.203,0.264,0.419,0.522,0.661,0.764
		c3.044,3.044,7.998,3.044,11.042,0c1.148-1.148,1.899-2.61,2.172-4.226l0.085-0.505H22V12.796z"/>
</g>
<g>
	<path fill="#FFFFFF" d="M12.503,14.07h-0.996l-0.206,1.328H9.895l1.289-6.797h1.621l1.299,6.797h-1.396L12.503,14.07z
		 M11.829,11.736l-0.136,1.084h0.615l-0.127-1.084l-0.147-1.377h-0.058L11.829,11.736z"/>
</g>
</svg>
