<?xml version="1.0" encoding="utf-8"?>
<!-- Generator: Adobe Illustrator 22.1.0, SVG Export Plug-In . SVG Version: 6.00 Build 0)  -->
<svg version="1.0" id="content" xmlns="http://www.w3.org/2000/svg" xmlns:xlink="http://www.w3.org/1999/xlink" x="0px" y="0px"
	 viewBox="0 0 24 24" enable-background="new 0 0 24 24" xml:space="preserve">
<g>
	<path fill="#FFFFFF" d="M14.645,5.801C15.108,3.765,14.888,2.174,14.864,2c-0.345,1.51-1.745,5.085-5.501,7.257
		c-4.451,2.574-5.437,7.651-5.015,10.44c-0.088-0.629,2.421-5.474,5.501-7.257C12.29,11.03,13.991,8.67,14.645,5.801z"/>
	<path fill="#FFFFFF" d="M19.44,8.105c0.463-2.037,0.243-3.628,0.219-3.801c-0.345,1.51-1.745,5.085-5.501,7.257
		C9.707,14.134,8.721,19.211,9.144,22c-0.088-0.629,2.421-5.474,5.501-7.257C17.086,13.333,18.786,10.974,19.44,8.105z"/>
	<path fill="#FFFFFF" d="M21.85,9.451c-0.221,0.967-1.117,3.254-3.52,4.644c-2.849,1.647-3.48,4.896-3.21,6.681
		c-0.056-0.402,1.549-3.503,3.52-4.644c1.563-0.902,2.651-2.412,3.07-4.249C22.007,10.58,21.866,9.562,21.85,9.451z"/>
	<path fill="#FFFFFF" d="M5.68,9.906c1.563-0.902,2.651-2.412,3.07-4.249c0.296-1.303,0.156-2.322,0.14-2.433
		C8.669,4.191,7.773,6.478,5.37,7.868c-2.849,1.647-3.48,4.896-3.21,6.681C2.103,14.148,3.709,11.047,5.68,9.906z"/>
</g>
</svg>
