<?xml version="1.0" encoding="utf-8"?>
<!-- Generator: Adobe Illustrator 22.1.0, SVG Export Plug-In . SVG Version: 6.00 Build 0)  -->
<svg version="1.0" id="content" xmlns="http://www.w3.org/2000/svg" xmlns:xlink="http://www.w3.org/1999/xlink" x="0px" y="0px"
	 viewBox="0 0 24 24" enable-background="new 0 0 24 24" xml:space="preserve">
<path fill="#6F7072" d="M21.615,8.935c-3.233-8.5-8.016-1.864-9.517,0.577c-0.033-0.001-0.064-0.01-0.098-0.01
	c-0.231,0-0.451,0.042-0.664,0.1c-0.546-1.352,0.701-2.069,0.701-2.069s1.31-0.628,1.827-2.545c1.204-4.466-4.929-2.603-4.929-2.603
	c-8.5,3.233-1.864,8.016,0.577,9.517c-0.001,0.033-0.01,0.064-0.01,0.098c0,0.231,0.042,0.451,0.101,0.664
	c-1.352,0.546-2.07-0.701-2.07-0.701s-0.628-1.31-2.545-1.827c-4.466-1.204-2.603,4.929-2.603,4.929
	c3.233,8.5,8.016,1.864,9.517-0.577c0.033,0.001,0.064,0.01,0.097,0.01c0.231,0,0.451-0.042,0.664-0.1
	c0.546,1.352-0.701,2.069-0.701,2.069s-1.31,0.628-1.827,2.545c-1.204,4.466,4.929,2.603,4.929,2.603
	c8.5-3.233,1.864-8.016-0.577-9.517c0.001-0.033,0.01-0.064,0.01-0.098c0-0.231-0.042-0.451-0.101-0.664
	c1.352-0.546,2.07,0.701,2.07,0.701s0.628,1.31,2.545,1.827C23.478,15.069,21.615,8.935,21.615,8.935z M12,13.267
	c-0.7,0-1.267-0.567-1.267-1.267c0-0.7,0.567-1.267,1.267-1.267c0.7,0,1.267,0.567,1.267,1.267C13.267,12.7,12.7,13.267,12,13.267z"
	/>
</svg>
