<?xml version="1.0" encoding="utf-8"?>
<!-- Generator: Adobe Illustrator 22.1.0, SVG Export Plug-In . SVG Version: 6.00 Build 0)  -->
<svg version="1.0" id="content" xmlns="http://www.w3.org/2000/svg" xmlns:xlink="http://www.w3.org/1999/xlink" x="0px" y="0px"
	 viewBox="0 0 24 24" enable-background="new 0 0 24 24" xml:space="preserve">
<g>
	<g>
		<path fill="#FFFFFF" d="M7.245,10.979c0.325,0,0.629,0.052,0.91,0.156c0.28,0.103,0.524,0.259,0.728,0.466
			c0.206,0.208,0.367,0.467,0.482,0.779c0.116,0.312,0.173,0.677,0.173,1.097c0,0.368-0.047,0.708-0.141,1.021
			c-0.094,0.311-0.237,0.58-0.429,0.806c-0.19,0.227-0.429,0.404-0.714,0.535c-0.287,0.131-0.622,0.194-1.009,0.194h-2.18v-5.054
			L7.245,10.979z M7.168,15.1c0.16,0,0.316-0.027,0.467-0.078c0.151-0.053,0.286-0.139,0.404-0.259
			c0.117-0.12,0.212-0.277,0.283-0.471s0.106-0.43,0.106-0.709c0-0.253-0.024-0.484-0.074-0.689
			c-0.049-0.205-0.131-0.382-0.244-0.528c-0.114-0.146-0.264-0.258-0.45-0.335c-0.187-0.079-0.417-0.118-0.69-0.118H6.175V15.1
			H7.168z"/>
		<path fill="#FFFFFF" d="M12.832,10.979l1.891,5.054h-1.154l-0.383-1.126h-1.89L10.9,16.033H9.78l1.912-5.054L12.832,10.979z
			 M12.896,14.08l-0.637-1.855h-0.014l-0.659,1.855H12.896z"/>
		<path fill="#FFFFFF" d="M14.092,10.979h1.246l1.183,1.996l1.174-1.996h1.241l-1.877,3.114v1.94h-1.111v-1.969L14.092,10.979z"/>
	</g>
	<g>
		<path fill="#FFFFFF" d="M20.965,4.566H3.031c-0.464,0-0.84,0.375-0.84,0.84v3.013v10.174c0,0.465,0.376,0.841,0.84,0.841h17.934
			c0.466,0,0.843-0.376,0.843-0.841V8.419V5.406C21.809,4.942,21.431,4.566,20.965,4.566z M17.003,5.932
			c0.541,0,0.98,0.439,0.98,0.98s-0.439,0.98-0.98,0.98s-0.981-0.439-0.981-0.98S16.462,5.932,17.003,5.932z M12,5.932
			c0.542,0,0.98,0.439,0.98,0.98s-0.438,0.98-0.98,0.98s-0.979-0.439-0.979-0.98S11.458,5.932,12,5.932z M6.494,5.932
			c0.543,0,0.981,0.439,0.981,0.98s-0.438,0.98-0.981,0.98c-0.541,0-0.98-0.439-0.98-0.98S5.953,5.932,6.494,5.932z M20.127,17.753
			H3.873V9.26h16.253v8.493H20.127z"/>
	</g>
</g>
</svg>
