<?xml version="1.0" encoding="utf-8"?>
<!-- Generator: Adobe Illustrator 22.1.0, SVG Export Plug-In . SVG Version: 6.00 Build 0)  -->
<svg version="1.0" id="content" xmlns="http://www.w3.org/2000/svg" xmlns:xlink="http://www.w3.org/1999/xlink" x="0px" y="0px"
	 viewBox="0 0 24 24" enable-background="new 0 0 24 24" xml:space="preserve">
<g>
	<path fill="#E6511E" d="M21.9,10.887l-5.5-4.6c-0.1-0.1-0.2-0.1-0.3,0l-6,4.6c-0.1,0.1-0.1,0.2-0.1,0.3s0.1,0.2,0.2,0.2h1.3v6.1
		c0,0.1,0.1,0.3,0.3,0.3h8.4c0.1,0,0.2-0.1,0.2-0.3v-6.1h1.4c0.1,0,0.2-0.1,0.2-0.2C22,11.088,22,10.988,21.9,10.887z"/>
	<path fill="#40A52B" d="M7.6,13.387c-0.5,0.5-1.1,0.8-1.9,0.8s-1.4-0.3-1.9-0.8c-1,0.6-1.8,1.7-1.8,2.4c0,1,1.7,1.9,3.8,1.9
		s3.8-0.8,3.8-1.9C9.5,15.088,8.7,13.988,7.6,13.387z"/>
	<ellipse fill="#F7B234" cx="5.8" cy="11.088" rx="2.1" ry="2.4"/>
</g>
</svg>
