<?xml version="1.0" encoding="utf-8"?>
<!-- Generator: Adobe Illustrator 22.1.0, SVG Export Plug-In . SVG Version: 6.00 Build 0)  -->
<svg version="1.1" id="Layer_1" xmlns="http://www.w3.org/2000/svg" xmlns:xlink="http://www.w3.org/1999/xlink" x="0px" y="0px"
	 viewBox="0 0 425.2 70.9" style="enable-background:new 0 0 425.2 70.9;" xml:space="preserve">
<style type="text/css">
	.st0{fill:#FFFFFF;}
</style>
<g>
	<path class="st0" d="M349.2,2.4H347v-1h5.3v1h-2.2v5.7h-1L349.2,2.4z M356.2,8.1l-2.1-5.8v5.8h-1V1.4h1.8l1.9,5.5l1.9-5.5h1.8v6.7
		h-1V2.3l-2.1,5.8L356.2,8.1z"/>
	<path class="st0" d="M162.3,17.8c-13.6,0-24.1,10-24.1,25.7c0,14.7,8.7,25.9,24.3,25.9c12.1,0,20-7.1,22.2-15.6h-8.7
		c-2.1,4.9-6.2,8.2-13.6,8.2c-7.3,0-15-5.2-15.3-15.9h38.2C186.5,30.5,177.5,17.8,162.3,17.8z M147.4,39c0.7-10,7.6-14,14.9-14
		c8.9,0,14,7,14.3,14H147.4z"/>
	<path class="st0" d="M199,68.3h-8.4V1.4h8.4L199,68.3z"/>
	<path class="st0" d="M216.1,68.3h-8.4V1.4h8.4V68.3z"/>
	<path class="st0" d="M258.7,1.4h8.4v66.8h-8.4v-7.5c-3,5.3-8.2,8.7-16.2,8.7c-11.4,0-21.2-9.3-21.2-25.8c0-16.2,9.8-25.8,21.2-25.8
		c8,0,13.2,3.4,16.2,8.7V1.4z M244.6,25c-8.6,0-14.2,6.5-14.2,18.6s5.6,18.6,14.2,18.6c7.5,0,14.5-5.5,14.5-18.6S252.1,25,244.6,25z
		"/>
	<path class="st0" d="M305.6,61.2c-2.9,4.7-7.4,8.3-15.6,8.3c-11.4,0-15.9-7.7-15.9-19.1V18.7h8.4v29.2c0,7.7,1.2,14.3,10.4,14.3
		c8,0,12.6-5.4,12.6-16.2V18.7h8.4v49.6h-8.4L305.6,61.2z"/>
	<path class="st0" d="M351,33.1c-1.4-5.9-5.8-8.2-11.7-8.2c-4.9,0-10.4,1.8-10.4,6.3c0,4,2.8,5.7,7.6,6.7l7,1.4
		c9,1.7,17,5.3,17,14.8c0,9.9-8.8,15.4-20.2,15.4c-12.9,0-20.3-8.6-21.3-17.2h8.8c1.4,6.4,5.3,10.1,12.6,10.1
		c6.4,0,11.5-2.7,11.5-7.4c0-5.2-4.7-7-10.1-8.2l-7.4-1.5c-6.7-1.5-14.1-4.4-14.1-13.7c0-8.8,8.8-13.8,19.8-13.8s18,5.9,19.5,15.4
		L351,33.1z"/>
	<path class="st0" d="M137,25.4v-7.2h-9.4V1.4h-8.4v57c0,6.6,4.8,9.9,9.9,9.9h7.9v-7.6h-6.3c-2.6,0-3.1-2.1-3.1-3.9V25.4H137z"/>
	<path class="st0" d="M98.2,20.2c-10.4,0-18.8-8.4-18.8-18.8H64.8c0,18.5,15,33.4,33.4,33.4V20.2z"/>
	<path class="st0" d="M98.2,53.6c-10.4,0-18.8-8.4-18.8-18.8H64.8c0,18.5,15,33.4,33.4,33.4V53.6z"/>
</g>
</svg>
