<?xml version="1.0" encoding="utf-8"?>
<!-- Generator: Adobe Illustrator 22.1.0, SVG Export Plug-In . SVG Version: 6.00 Build 0)  -->
<svg version="1.0" id="Layer_1" xmlns="http://www.w3.org/2000/svg" xmlns:xlink="http://www.w3.org/1999/xlink" x="0px" y="0px"
	 viewBox="0 0 425.2 70.9" style="enable-background:new 0 0 425.2 70.9;" xml:space="preserve">
<style type="text/css">
	.st0{fill:#000;}
	.st1{fill:#FFFFFF;}
</style>
<g>
	<path class="st0" d="M421.2,28.6l-33-27.2c-0.5-0.4-1.3-0.5-1.8,0l-35.8,27.2c-0.5,0.4-0.7,1.1-0.5,1.7c0.2,0.6,0.8,1,1.4,1h7.5
		v36.2c0,0.8,0.7,1.5,1.5,1.5h50.2c0.8,0,1.5-0.7,1.5-1.5V31.3h8.1c0.6,0,1.2-0.4,1.4-1C421.9,29.7,421.7,29,421.2,28.6z"/>
	<path class="st1" d="M17.8,20.6H5c-0.9,0-1.6-0.7-1.6-1.6v-6.8c0-0.8,0.7-1.6,1.6-1.6h36.4c0.9,0,1.6,0.7,1.6,1.6v6.8
		c0,0.8-0.7,1.6-1.6,1.6H28.7v46.7c0,0.8-0.7,1.6-1.6,1.6h-7.7c-0.8,0-1.6-0.7-1.6-1.6C17.8,67.3,17.8,20.6,17.8,20.6z"/>
	<path class="st1" d="M51.6,12.2c0-0.8,0.7-1.6,1.6-1.6h33.9c0.9,0,1.6,0.7,1.6,1.6v6.8c0,0.8-0.7,1.6-1.6,1.6H62.4v13.6H83
		c0.8,0,1.6,0.8,1.6,1.6v6.9c0,0.9-0.7,1.6-1.6,1.6H62.4v14.6h24.6c0.9,0,1.6,0.8,1.6,1.6v6.8c0,0.8-0.7,1.6-1.6,1.6H53.2
		c-0.9,0-1.6-0.7-1.6-1.6V12.2z"/>
	<path class="st1" d="M100.5,12.2c0-0.8,0.7-1.6,1.6-1.6h7.7c0.8,0,1.6,0.7,1.6,1.6v46.7h21.2c0.9,0,1.6,0.8,1.6,1.6v6.8
		c0,0.8-0.7,1.6-1.6,1.6h-30.5c-0.9,0-1.6-0.7-1.6-1.6C100.5,67.3,100.5,12.2,100.5,12.2z"/>
	<path class="st1" d="M142.6,12.2c0-0.8,0.7-1.6,1.6-1.6h7.7c0.8,0,1.6,0.7,1.6,1.6v46.7h21.2c0.9,0,1.6,0.8,1.6,1.6v6.8
		c0,0.8-0.7,1.6-1.6,1.6h-30.5c-0.9,0-1.6-0.7-1.6-1.6L142.6,12.2L142.6,12.2z"/>
	<path class="st1" d="M184.6,12.2c0-0.8,0.7-1.6,1.5-1.6h19.7c16.1,0,29.2,13.1,29.2,29c0,16.1-13.1,29.2-29.2,29.2h-19.7
		c-0.8,0-1.5-0.7-1.5-1.6L184.6,12.2L184.6,12.2z M204.8,58.8c10.8,0,18.7-8.2,18.7-19.1c0-10.8-7.9-19-18.7-19h-9.5v38L204.8,58.8
		L204.8,58.8z"/>
	<path class="st1" d="M245.2,12.2c0-0.8,0.7-1.6,1.6-1.6h7.9c0.9,0,1.6,0.7,1.6,1.6v34c0,7.1,4.8,12.6,12.1,12.6s12.1-5.6,12.1-12.6
		V12.2c0-0.8,0.7-1.6,1.6-1.6h7.9c0.8,0,1.6,0.7,1.6,1.6v34.6c0,12.6-10.1,22.9-23.2,22.9c-13.1,0-23.1-10.2-23.1-22.9L245.2,12.2
		L245.2,12.2z"/>
	<path class="st1" d="M302.4,60.8l3-5.2c0.7-1.2,2.1-1.2,2.8-0.6c0.4,0.2,7.2,5.2,12.6,5.2c4.3,0,7.6-2.8,7.6-6.4
		c0-4.2-3.6-7.2-10.6-10c-7.8-3.2-15.6-8.2-15.6-18c0-7.4,5.5-16,18.7-16c8.5,0,15,4.3,16.6,5.6c0.8,0.5,1.1,1.9,0.5,2.7l-3.2,4.7
		c-0.7,1-1.9,1.7-2.9,1c-0.7-0.4-7-4.6-11.6-4.6c-4.7,0-7.3,3.2-7.3,5.8c0,3.9,3.1,6.6,9.8,9.3c8.1,3.2,17.4,8.1,17.4,18.8
		c0,8.6-7.4,16.5-19.1,16.5c-10.5,0-16.6-4.9-18.3-6.5C302.1,62.5,301.7,62.1,302.4,60.8"/>
	<path class="st1" d="M343.2,14.2c0-1.2,0.4-2.3,1.2-3.1c0.8-0.8,1.8-1.2,3-1.3c1.2,0,2.2,0.4,3,1.3c0.8,0.8,1.2,1.9,1.2,3.1
		c0,1.2-0.4,2.2-1.2,3.1c-0.8,0.8-1.8,1.3-3,1.3c-1.2,0-2.2-0.4-3-1.3C343.6,16.4,343.2,15.4,343.2,14.2 M344.1,14.2
		c0,1,0.3,1.9,0.9,2.5c0.6,0.7,1.4,1,2.4,1c1,0,1.8-0.3,2.4-1c0.6-0.6,0.9-1.5,0.9-2.5c0-1-0.3-1.9-0.9-2.5c-0.6-0.6-1.4-1-2.4-1
		c-1,0-1.7,0.3-2.4,1C344.4,12.3,344.1,13.1,344.1,14.2 M345.8,11.5h1.9c1.1,0,1.7,0.5,1.7,1.5c0,0.5-0.1,0.9-0.4,1.1
		c-0.2,0.2-0.5,0.4-0.9,0.4l1.4,2.1h-1l-1.4-2.1h-0.5v2.1h-0.8L345.8,11.5L345.8,11.5z M346.6,13.7h0.6c0.4,0,0.7,0,0.9-0.1
		c0.2-0.1,0.4-0.3,0.4-0.6c0-0.3-0.1-0.5-0.3-0.6c-0.2-0.1-0.5-0.1-0.8-0.1h-0.8L346.6,13.7L346.6,13.7z"/>
	<g>
		<path class="st1" d="M373.4,46.7l2.3,1.9c0.1,0.1,0.3,0.2,0.5,0.2c0.2,0,0.4-0.1,0.5-0.3c1.7-2.2,2.7-4.9,2.7-7.9
			c0-3-0.9-5.7-2.6-7.9c-0.1-0.2-0.3-0.3-0.5-0.3c-0.2,0-0.4,0-0.5,0.2l-2.3,1.9c-0.3,0.2-0.3,0.7-0.1,1c1,1.5,1.6,3.2,1.6,5.1
			c0,1.9-0.6,3.7-1.7,5.1C373.1,46,373.2,46.4,373.4,46.7z"/>
		<path class="st1" d="M385.1,55.7c-0.2,0.3-0.2,0.7,0.1,1l3.4,2.9c0.1,0.1,0.3,0.2,0.5,0.2c0.2,0,0.4-0.1,0.5-0.3
			c4.1-5.1,6.7-11.6,6.7-18.7c0-7.1-2.4-13.6-6.5-18.8c-0.1-0.1-0.3-0.2-0.5-0.3c-0.2,0-0.4,0-0.5,0.2l-3.4,2.8
			c-0.3,0.2-0.3,0.7-0.1,1c3.2,4.1,5.2,9.4,5.1,15C390.4,46.3,388.4,51.6,385.1,55.7z"/>
		<path class="st1" d="M382.6,27.3c-0.2,0-0.4,0-0.5,0.2l-2.9,2.4c-0.3,0.2-0.3,0.7-0.1,1c2.1,2.7,3.3,6.2,3.3,9.9
			c0,3.7-1.3,7.1-3.4,9.8c-0.2,0.3-0.2,0.7,0.1,1l2.8,2.4c0.1,0.1,0.3,0.2,0.5,0.2c0.2,0,0.4-0.1,0.5-0.3c2.9-3.6,4.6-8.1,4.6-13.1
			c0-4.9-1.6-9.5-4.4-13.1C382.9,27.4,382.8,27.3,382.6,27.3z"/>
	</g>
</g>
</svg>
